<?xml version="1.0" encoding="UTF-8" standalone="no"?>
<svg
   xmlns:dc="http://purl.org/dc/elements/1.1/"
   xmlns:cc="http://creativecommons.org/ns#"
   xmlns:rdf="http://www.w3.org/1999/02/22-rdf-syntax-ns#"
   xmlns:svg="http://www.w3.org/2000/svg"
   xmlns="http://www.w3.org/2000/svg"
   xmlns:sodipodi="http://sodipodi.sourceforge.net/DTD/sodipodi-0.dtd"
   xmlns:inkscape="http://www.inkscape.org/namespaces/inkscape"
   viewBox="0 0 522.53815 699.19434"
   height="699.19434"
   width="522.53815"
   xml:space="preserve"
   id="svg2"
   version="1.1"
   sodipodi:docname="canva22.svg"
   inkscape:version="0.92.3 (2405546, 2018-03-11)"><sodipodi:namedview
     pagecolor="#ffffff"
     bordercolor="#666666"
     borderopacity="1"
     objecttolerance="10"
     gridtolerance="10"
     guidetolerance="10"
     inkscape:pageopacity="0"
     inkscape:pageshadow="2"
     inkscape:window-width="1533"
     inkscape:window-height="845"
     id="namedview209"
     showgrid="false"
     inkscape:zoom="0.87407407"
     inkscape:cx="375.47347"
     inkscape:cy="355.8737"
     inkscape:window-x="67"
     inkscape:window-y="27"
     inkscape:window-maximized="1"
     inkscape:current-layer="svg2" /><metadata
     id="metadata8"><rdf:RDF><cc:Work
         rdf:about=""><dc:format>image/svg+xml</dc:format><dc:type
           rdf:resource="http://purl.org/dc/dcmitype/StillImage" /><dc:title></dc:title></cc:Work></rdf:RDF></metadata><defs
     id="defs6"><clipPath
       id="clipPath80"
       clipPathUnits="userSpaceOnUse"><path
         style="clip-rule:evenodd"
         id="path78"
         d="M 1.0729e-5,0 H 720.00001 V 405 H 1.0729e-5 Z"
         inkscape:connector-curvature="0" /></clipPath><clipPath
       id="clipPath92"
       clipPathUnits="userSpaceOnUse"><path
         style="clip-rule:evenodd"
         id="path90"
         d="M 1.0729e-5,0 H 720.00001 V 405 H 1.0729e-5 Z"
         inkscape:connector-curvature="0" /></clipPath><clipPath
       id="clipPath104"
       clipPathUnits="userSpaceOnUse"><path
         style="clip-rule:evenodd"
         id="path102"
         d="M 1.0729e-5,0 H 720.00001 V 405 H 1.0729e-5 Z"
         inkscape:connector-curvature="0" /></clipPath><clipPath
       id="clipPath116"
       clipPathUnits="userSpaceOnUse"><path
         style="clip-rule:evenodd"
         id="path114"
         d="M 1.0729e-5,0 H 720.00001 V 405 H 1.0729e-5 Z"
         inkscape:connector-curvature="0" /></clipPath><clipPath
       id="clipPath148"
       clipPathUnits="userSpaceOnUse"><path
         style="clip-rule:evenodd"
         id="path146"
         d="M 1.0729e-5,0 H 720.00001 V 405 H 1.0729e-5 Z"
         inkscape:connector-curvature="0" /></clipPath><clipPath
       id="clipPath160"
       clipPathUnits="userSpaceOnUse"><path
         style="clip-rule:evenodd"
         id="path158"
         d="M 1.0729e-5,0 H 720.00001 V 405 H 1.0729e-5 Z"
         inkscape:connector-curvature="0" /></clipPath><clipPath
       id="clipPath172"
       clipPathUnits="userSpaceOnUse"><path
         style="clip-rule:evenodd"
         id="path170"
         d="M 1.0729e-5,0 H 720.00001 V 405 H 1.0729e-5 Z"
         inkscape:connector-curvature="0" /></clipPath><clipPath
       id="clipPath184"
       clipPathUnits="userSpaceOnUse"><path
         style="clip-rule:evenodd"
         id="path182"
         d="M 1.0729e-5,0 H 720.00001 V 405 H 1.0729e-5 Z"
         inkscape:connector-curvature="0" /></clipPath><clipPath
       id="clipPath196"
       clipPathUnits="userSpaceOnUse"><path
         style="clip-rule:evenodd"
         id="path194"
         d="M 1.0729e-5,0 H 720.00001 V 405 H 1.0729e-5 Z"
         inkscape:connector-curvature="0" /></clipPath><clipPath
       id="clipPath208"
       clipPathUnits="userSpaceOnUse"><path
         style="clip-rule:evenodd"
         id="path206"
         d="M 1.0729e-5,0 H 720.00001 V 405 H 1.0729e-5 Z"
         inkscape:connector-curvature="0" /></clipPath><clipPath
       id="clipPath220"
       clipPathUnits="userSpaceOnUse"><path
         style="clip-rule:evenodd"
         id="path218"
         d="M 1.0729e-5,0 H 720.00001 V 405 H 1.0729e-5 Z"
         inkscape:connector-curvature="0" /></clipPath><clipPath
       id="clipPath232"
       clipPathUnits="userSpaceOnUse"><path
         style="clip-rule:evenodd"
         id="path230"
         d="M 1.0729e-5,0 H 720.00001 V 405 H 1.0729e-5 Z"
         inkscape:connector-curvature="0" /></clipPath><clipPath
       id="clipPath244"
       clipPathUnits="userSpaceOnUse"><path
         style="clip-rule:evenodd"
         id="path242"
         d="M 1.0729e-5,0 H 720.00001 V 405 H 1.0729e-5 Z"
         inkscape:connector-curvature="0" /></clipPath><clipPath
       id="clipPath256"
       clipPathUnits="userSpaceOnUse"><path
         style="clip-rule:evenodd"
         id="path254"
         d="M 1.0729e-5,0 H 720.00001 V 405 H 1.0729e-5 Z"
         inkscape:connector-curvature="0" /></clipPath><clipPath
       id="clipPath268"
       clipPathUnits="userSpaceOnUse"><path
         style="clip-rule:evenodd"
         id="path266"
         d="M 1.0729e-5,0 H 720.00001 V 405 H 1.0729e-5 Z"
         inkscape:connector-curvature="0" /></clipPath><clipPath
       id="clipPath280"
       clipPathUnits="userSpaceOnUse"><path
         style="clip-rule:evenodd"
         id="path278"
         d="M 1.0729e-5,0 H 720.00001 V 405 H 1.0729e-5 Z"
         inkscape:connector-curvature="0" /></clipPath><clipPath
       id="clipPath292"
       clipPathUnits="userSpaceOnUse"><path
         style="clip-rule:evenodd"
         id="path290"
         d="M 1.0729e-5,0 H 720.00001 V 405 H 1.0729e-5 Z"
         inkscape:connector-curvature="0" /></clipPath><clipPath
       id="clipPath304"
       clipPathUnits="userSpaceOnUse"><path
         style="clip-rule:evenodd"
         id="path302"
         d="M 1.0729e-5,0 H 720.00001 V 405 H 1.0729e-5 Z"
         inkscape:connector-curvature="0" /></clipPath><clipPath
       id="clipPath316"
       clipPathUnits="userSpaceOnUse"><path
         style="clip-rule:evenodd"
         id="path314"
         d="M 1.0729e-5,0 H 720.00001 V 405 H 1.0729e-5 Z"
         inkscape:connector-curvature="0" /></clipPath><clipPath
       id="clipPath328"
       clipPathUnits="userSpaceOnUse"><path
         style="clip-rule:evenodd"
         id="path326"
         d="M 1.0729e-5,0 H 720.00001 V 405 H 1.0729e-5 Z"
         inkscape:connector-curvature="0" /></clipPath><clipPath
       id="clipPath340"
       clipPathUnits="userSpaceOnUse"><path
         style="clip-rule:evenodd"
         id="path338"
         d="M 1.0729e-5,0 H 720.00001 V 405 H 1.0729e-5 Z"
         inkscape:connector-curvature="0" /></clipPath><clipPath
       id="clipPath352"
       clipPathUnits="userSpaceOnUse"><path
         style="clip-rule:evenodd"
         id="path350"
         d="M 1.0729e-5,0 H 720.00001 V 405 H 1.0729e-5 Z"
         inkscape:connector-curvature="0" /></clipPath><clipPath
       id="clipPath364"
       clipPathUnits="userSpaceOnUse"><path
         style="clip-rule:evenodd"
         id="path362"
         d="M 1.0729e-5,0 H 720.00001 V 405 H 1.0729e-5 Z"
         inkscape:connector-curvature="0" /></clipPath><clipPath
       id="clipPath376"
       clipPathUnits="userSpaceOnUse"><path
         style="clip-rule:evenodd"
         id="path374"
         d="M 1.0729e-5,0 H 720.00001 V 405 H 1.0729e-5 Z"
         inkscape:connector-curvature="0" /></clipPath><clipPath
       id="clipPath388"
       clipPathUnits="userSpaceOnUse"><path
         style="clip-rule:evenodd"
         id="path386"
         d="M 1.0729e-5,0 H 720.00001 V 405 H 1.0729e-5 Z"
         inkscape:connector-curvature="0" /></clipPath><clipPath
       id="clipPath400"
       clipPathUnits="userSpaceOnUse"><path
         style="clip-rule:evenodd"
         id="path398"
         d="M 1.0729e-5,0 H 720.00001 V 405 H 1.0729e-5 Z"
         inkscape:connector-curvature="0" /></clipPath><clipPath
       id="clipPath412"
       clipPathUnits="userSpaceOnUse"><path
         style="clip-rule:evenodd"
         id="path410"
         d="M 1.0729e-5,0 H 720.00001 V 405 H 1.0729e-5 Z"
         inkscape:connector-curvature="0" /></clipPath></defs><g
     transform="matrix(1.3333333,0,0,-1.3333333,141.53066,607.46268)"
     id="g74"><g
       id="g76"
       clip-path="url(#clipPath80)"><text
   transform="matrix(1,0,0,-1,162.27,332.02)"
   style="font-variant:normal;font-weight:bold;font-size:12.77499962px;font-family:Arial;-inkscape-font-specification:Arial-BoldMT;writing-mode:lr-tb;fill:#000000;fill-opacity:1;fill-rule:nonzero;stroke:none"
   id="text84"><tspan
     x="0 8.2526503 16.505301 24.004225 32.256874 41.263248 49.5159"
     y="0"
     id="tspan82">SELEÇÃO</tspan></text>

</g></g><g
     id="g86"
     transform="matrix(1.3333333,0,0,-1.3333333,168.98828,266.52199)"><g
       id="g88"
       clip-path="url(#clipPath92)"><text
   transform="matrix(1,0,0,-1,14.275,171.98)"
   style="font-variant:normal;font-weight:normal;font-size:11.25px;font-family:ArialMT;-inkscape-font-specification:ArialMT;writing-mode:lr-tb;fill:#000000;fill-opacity:1;fill-rule:nonzero;stroke:none"
   id="text96"><tspan
     x="0 3.7462499 9.7537498 15.75 18.75375 24.75 30.74625 33.75 39.74625 45.7425 51.73875 57.735001"
     y="0"
     id="tspan94">(20/08/2021 </tspan></text>

</g></g><g
     transform="matrix(1.3333333,0,0,-1.3333333,171.27641,266.52199)"
     id="g98"><g
       id="g100"
       clip-path="url(#clipPath104)"><text
   transform="matrix(1,0,0,-1,75.825,171.98)"
   style="font-variant:normal;font-weight:normal;font-size:11.25px;font-family:ArialMT;-inkscape-font-specification:ArialMT;writing-mode:lr-tb;fill:#000000;fill-opacity:1;fill-rule:nonzero;stroke:none"
   id="text108"><tspan
     x="0"
     y="0"
     id="tspan106">-</tspan></text>

</g></g><g
     transform="matrix(1.3333333,0,0,-1.3333333,171.27641,266.52199)"
     id="g110"><g
       id="g112"
       clip-path="url(#clipPath116)"><text
   transform="matrix(1,0,0,-1,82.575,171.98)"
   style="font-variant:normal;font-weight:normal;font-size:11.25px;font-family:ArialMT;-inkscape-font-specification:ArialMT;writing-mode:lr-tb;fill:#000000;fill-opacity:1;fill-rule:nonzero;stroke:none"
   id="text120"><tspan
     x="0 5.2762499 10.5525 13.57875 18.855 24.13125 27.157499 32.43375 37.709999 42.986252 48.262501"
     y="0"
     id="tspan118">xx/xx/xxxx)</tspan></text>

</g></g><path
     inkscape:connector-curvature="0"
     d="m 264.22622,54.775208 c 0,3.4 2.53334,6.10667 5.98667,6.41334 v 21.12 c -3.14667,0.49333 -4.36,4.2 -2.33333,6.4 2.13333,2.30666 5.88,1.30666 6.69333,-1.6 23.96,1.89333 42.42667,21.613332 42.42667,45.333332 0,23.73333 -18.46667,43.44 -42.42667,45.45333 -0.81333,-2.90667 -4.56,-3.90667 -6.6,-1.61333 -2.12,2.21333 -0.90667,5.81333 2.24,6.30666 v 24.33334 c -1.82667,0.29333 -3.14667,1.8 -3.25333,3.49333 -24.66667,2 -43.64,22.32 -43.64,46.74667 0,24.32 18.97333,44.63999 43.64,46.63999 0.10666,1.8 1.42666,3.2 3.25333,3.50667 v 24.22667 c -3.14667,0.49333 -4.36,4.09333 -2.33333,6.4 2.13333,2.2 5.88,1.30666 6.69333,-1.6 23.96,1.90666 42.42667,21.61333 42.42667,45.34666 0,23.72 -18.46667,43.53334 -42.42667,45.44 -0.81333,-2.90666 -4.56,-3.90666 -6.69333,-1.61333 -2.02667,2.30667 -0.81334,5.90666 2.33333,6.41333 v 24.22667 c -1.82667,0.29333 -3.14667,1.8 -3.25333,3.6 -24.56,2.10666 -43.33334,22.32 -43.33334,46.64 0,24.22667 18.77334,44.44 43.33334,46.54667 0.10666,1.8 1.42666,3.29333 3.25333,3.6 v 24.82666 c -8.42667,0.8 -7.72,12.90667 0.6,12.90667 8.22667,0 8.93333,-12.10667 0.61333,-12.90667 v -24.82666 c 3.05334,-0.4 4.36,-4.10667 2.24,-6.41334 -2.04,-2.2 -5.89333,-1.29333 -6.6,1.70667 -24.05333,-1.90667 -42.53333,-21.72 -42.53333,-45.44 0,-23.72 18.48,-43.54667 42.53333,-45.44 0.81334,3 4.56,3.90666 6.6,1.6 2.12,-2.30667 0.81334,-5.90667 -2.24,-6.4 v -24.22667 c 1.73334,-0.30667 3.14667,-1.70667 3.25334,-3.50667 24.66666,-1.99999 43.53333,-22.31999 43.53333,-46.63999 0,-24.42667 -18.86667,-44.64 -43.53333,-46.64 -0.10667,-1.8 -1.42667,-3.30667 -3.25334,-3.6 v -24.22667 c 3.05334,-0.50667 4.36,-4.10667 2.24,-6.4 -2.04,-2.21333 -5.78666,-1.30667 -6.6,1.6 -24.05333,-1.90667 -42.53333,-21.62666 -42.53333,-45.45333 0,-23.72 18.48,-43.53333 42.53333,-45.44 0.70667,3.01333 4.56,3.90667 6.6,1.70667 2.12,-2.30667 0.81334,-5.90667 -2.24,-6.4 v -24.33334 c 1.82667,-0.2 3.14667,-1.69333 3.25334,-3.49333 24.66666,-2.01333 43.64,-22.32 43.64,-46.65333 0,-24.41333 -18.97334,-44.640002 -43.64,-46.640002 -0.10667,-1.8 -1.42667,-3.2 -3.25334,-3.49333 v -21.12 c 5.68,-0.6 7.92,-7.50667 3.76,-11.21334 -4.26666,-3.70666 -10.96,-0.8 -10.96,4.8 z"
     style="fill:#000000;fill-opacity:1;fill-rule:evenodd;stroke:none;stroke-width:1.33333325"
     id="path14" /><path
     inkscape:connector-curvature="0"
     d="m 264.22622,54.775208 c 0,3.4 2.53334,6.10667 5.98667,6.41334 v 21.12 c -3.14667,0.49333 -4.36,4.2 -2.33333,6.4 2.13333,2.30666 5.88,1.30666 6.69333,-1.6 23.96,1.89333 42.42667,21.613332 42.42667,45.333332 0,23.73333 -18.46667,43.44 -42.42667,45.45333 -0.81333,-2.90667 -4.56,-3.90667 -6.6,-1.61333 -2.12,2.21333 -0.90667,5.81333 2.24,6.30666 v 24.33334 c -1.82667,0.29333 -3.14667,1.8 -3.25333,3.49333 -24.66667,2 -43.64,22.32 -43.64,46.74667 0,24.32 18.97333,44.63999 43.64,46.63999 0.10666,1.8 1.42666,3.2 3.25333,3.50667 v 24.22667 c -3.14667,0.49333 -4.36,4.09333 -2.33333,6.4 2.13333,2.2 5.88,1.30666 6.69333,-1.6 23.96,1.90666 42.42667,21.61333 42.42667,45.34666 0,23.72 -18.46667,43.53334 -42.42667,45.44 -0.81333,-2.90666 -4.56,-3.90666 -6.69333,-1.61333 -2.02667,2.30667 -0.81334,5.90666 2.33333,6.41333 v 24.22667 c -1.82667,0.29333 -3.14667,1.8 -3.25333,3.6 -24.56,2.10666 -43.33334,22.32 -43.33334,46.64 0,24.22667 18.77334,44.44 43.33334,46.54667 0.10666,1.8 1.42666,3.29333 3.25333,3.6 v 24.82666 c -8.42667,0.8 -7.72,12.90667 0.6,12.90667 8.22667,0 8.93333,-12.10667 0.61333,-12.90667 v -24.82666 c 3.05334,-0.4 4.36,-4.10667 2.24,-6.41334 -2.04,-2.2 -5.89333,-1.29333 -6.6,1.70667 -24.05333,-1.90667 -42.53333,-21.72 -42.53333,-45.44 0,-23.72 18.48,-43.54667 42.53333,-45.44 0.81334,3 4.56,3.90666 6.6,1.6 2.12,-2.30667 0.81334,-5.90667 -2.24,-6.4 v -24.22667 c 1.73334,-0.30667 3.14667,-1.70667 3.25334,-3.50667 24.66666,-1.99999 43.53333,-22.31999 43.53333,-46.63999 0,-24.42667 -18.86667,-44.64 -43.53333,-46.64 -0.10667,-1.8 -1.42667,-3.30667 -3.25334,-3.6 v -24.22667 c 3.05334,-0.50667 4.36,-4.10667 2.24,-6.4 -2.04,-2.21333 -5.78666,-1.30667 -6.6,1.6 -24.05333,-1.90667 -42.53333,-21.62666 -42.53333,-45.45333 0,-23.72 18.48,-43.53333 42.53333,-45.44 0.70667,3.01333 4.56,3.90667 6.6,1.70667 2.12,-2.30667 0.81334,-5.90667 -2.24,-6.4 v -24.33334 c 1.82667,-0.2 3.14667,-1.69333 3.25334,-3.49333 24.66666,-2.01333 43.64,-22.32 43.64,-46.65333 0,-24.41333 -18.97334,-44.640002 -43.64,-46.640002 -0.10667,-1.8 -1.42667,-3.2 -3.25334,-3.49333 v -21.12 c 5.68,-0.6 7.92,-7.50667 3.76,-11.21334 -4.26666,-3.70666 -10.96,-0.8 -10.96,4.8 z"
     style="fill:none;stroke:#000000;stroke-width:2;stroke-linecap:butt;stroke-linejoin:round;stroke-miterlimit:10;stroke-dasharray:none;stroke-opacity:1"
     id="path16" /><path
     inkscape:connector-curvature="0"
     d="m 232.31956,136.31782 c 0,21 17.22666,38 38.49333,38 21.28,0 38.50667,-17 38.50667,-38 0,-21 -17.22667,-38.000002 -38.50667,-38.000002 -21.26667,0 -38.49333,17.000002 -38.49333,38.000002 z"
     style="fill:#3044ff;fill-opacity:1;fill-rule:evenodd;stroke:none;stroke-width:1.33333325"
     id="path18" /><path
     inkscape:connector-curvature="0"
     d="m 308.31956,136.31782 7,7 v -14 z"
     style="fill:#3044ff;fill-opacity:1;fill-rule:evenodd;stroke:none;stroke-width:1.33333325"
     id="path20" /><path
     inkscape:connector-curvature="0"
     d="m 380.31956,136.31782 c 0,4.41333 3.58667,8 8,8 4.41333,0 8,-3.58667 8,-8 0,-4.41333 -3.58667,-8 -8,-8 -4.41333,0 -8,3.58667 -8,8 z"
     style="fill:#3044ff;fill-opacity:1;fill-rule:evenodd;stroke:none;stroke-width:1.33333325"
     id="path22" /><path
     inkscape:connector-curvature="0"
     d="m 384.31956,135.81115 c 0,2.46667 2.04,4.50667 4.49333,4.50667 2.46667,0 4.50667,-2.04 4.50667,-4.50667 0,-2.45333 -2.04,-4.49333 -4.50667,-4.49333 -2.45333,0 -4.49333,2.04 -4.49333,4.49333 z"
     style="fill:#3044ff;fill-opacity:1;fill-rule:evenodd;stroke:none;stroke-width:1.33333325"
     id="path24" /><path
     inkscape:connector-curvature="0"
     d="m 381.8129,137.82449 h -76"
     style="fill:none;stroke:#3044ff;stroke-width:2.60106659;stroke-linecap:round;stroke-linejoin:miter;stroke-miterlimit:1;stroke-dasharray:none;stroke-opacity:1"
     id="path26" /><path
     inkscape:connector-curvature="0"
     d="m 242.31956,135.77115 c 0,15.21334 12.56,27.54667 28.05333,27.54667 15.38667,0 27.94667,-12.33333 27.94667,-27.54667 0,-15.21333 -12.56,-27.45333 -27.94667,-27.45333 -15.49333,0 -28.05333,12.24 -28.05333,27.45333 z"
     style="fill:#f6f6f6;fill-opacity:1;fill-rule:evenodd;stroke:none;stroke-width:1.33333325"
     id="path28" /><path
     inkscape:connector-curvature="0"
     d="m 380.31956,385.26449 c 0,4.48 3.58667,8.05333 8,8.05333 4.41333,0 8,-3.57333 8,-8.05333 0,-4.37333 -3.58667,-7.94667 -8,-7.94667 -4.41333,0 -8,3.57334 -8,7.94667 z"
     style="fill:#3044ff;fill-opacity:1;fill-rule:evenodd;stroke:none;stroke-width:1.33333325"
     id="path38" /><path
     inkscape:connector-curvature="0"
     d="m 232.31956,385.26449 c 0,20.97333 17.22666,38.05333 38.49333,38.05333 21.28,0 38.50667,-17.08 38.50667,-38.05333 0,-20.86667 -17.22667,-37.94667 -38.50667,-37.94667 -21.26667,0 -38.49333,17.08 -38.49333,37.94667 z"
     style="fill:#3044ff;fill-opacity:1;fill-rule:evenodd;stroke:none;stroke-width:1.33333325"
     id="path40" /><path
     inkscape:connector-curvature="0"
     d="m 308.31956,385.26449 7,7.05333 v -14 z"
     style="fill:#3044ff;fill-opacity:1;fill-rule:evenodd;stroke:none;stroke-width:1.33333325"
     id="path42" /><path
     inkscape:connector-curvature="0"
     d="M 387.81289,386.82448 H 303.82623"
     style="fill:none;stroke:#3044ff;stroke-width:2.60106659;stroke-linecap:round;stroke-linejoin:miter;stroke-miterlimit:1;stroke-dasharray:none;stroke-opacity:1"
     id="path44" /><path
     inkscape:connector-curvature="0"
     d="m 384.31956,385.35782 c 0,2.21334 1.96,3.96 4.45333,3.96 2.48,0 4.54667,-1.74666 4.54667,-3.96 0,-2.2 -2.06667,-4.04 -4.54667,-4.04 -2.49333,0 -4.45333,1.84 -4.45333,4.04 z"
     style="fill:#3044ff;fill-opacity:1;fill-rule:evenodd;stroke:none;stroke-width:1.33333325"
     id="path46" /><path
     inkscape:connector-curvature="0"
     d="m 242.31956,385.26449 c 0,15.49333 12.56,28.05333 28.05333,28.05333 15.38667,0 27.94667,-12.56 27.94667,-28.05333 0,-15.38667 -12.56,-27.94667 -27.94667,-27.94667 -15.49333,0 -28.05333,12.56 -28.05333,27.94667 z"
     style="fill:#f6f6f6;fill-opacity:1;fill-rule:evenodd;stroke:none;stroke-width:1.33333325"
     id="path48" /><path
     inkscape:connector-curvature="0"
     d="m 144.31957,260.82449 c 0,4.13333 3.57334,7.49333 7.94667,7.49333 4.48,0 8.05333,-3.36 8.05333,-7.49333 0,-4.14667 -3.57333,-7.50667 -8.05333,-7.50667 -4.37333,0 -7.94667,3.36 -7.94667,7.50667 z"
     style="fill:#3044ff;fill-opacity:1;fill-rule:evenodd;stroke:none;stroke-width:1.33333325"
     id="path50" /><path
     inkscape:connector-curvature="0"
     d="m 232.31956,260.31782 c 0,21 17.22666,38 38.49333,38 21.28,0 38.50667,-17 38.50667,-38 0,-21 -17.22667,-38 -38.50667,-38 -21.26667,0 -38.49333,17 -38.49333,38 z"
     style="fill:#3044ff;fill-opacity:1;fill-rule:evenodd;stroke:none;stroke-width:1.33333325"
     id="path52" /><path
     inkscape:connector-curvature="0"
     d="m 225.31956,267.31782 7,-7 -7,-7 z"
     style="fill:#3044ff;fill-opacity:1;fill-rule:evenodd;stroke:none;stroke-width:1.33333325"
     id="path54" /><path
     inkscape:connector-curvature="0"
     d="m 243.8129,260.82449 h -92"
     style="fill:none;stroke:#3044ff;stroke-width:2.60106659;stroke-linecap:butt;stroke-linejoin:miter;stroke-miterlimit:1;stroke-dasharray:none;stroke-opacity:1"
     id="path56" /><path
     inkscape:connector-curvature="0"
     d="m 148.31957,260.86449 c 0,2.48 1.74667,4.45333 3.96,4.45333 2.2,0 4.04,-1.97333 4.04,-4.45333 0,-2.48 -1.84,-4.54667 -4.04,-4.54667 -2.21333,0 -3.96,2.06667 -3.96,4.54667 z"
     style="fill:#3044ff;fill-opacity:1;fill-rule:evenodd;stroke:none;stroke-width:1.33333325"
     id="path58" /><path
     inkscape:connector-curvature="0"
     d="m 242.31956,260.86449 c 0,15.12 12.56,27.45333 28.05333,27.45333 15.38667,0 27.94667,-12.33333 27.94667,-27.45333 0,-15.21334 -12.56,-27.54667 -27.94667,-27.54667 -15.49333,0 -28.05333,12.33333 -28.05333,27.54667 z"
     style="fill:#f6f6f6;fill-opacity:1;fill-rule:evenodd;stroke:none;stroke-width:1.33333325"
     id="path60" /><path
     inkscape:connector-curvature="0"
     d="m 144.31957,509.77114 c 0,4.2 3.57334,7.54667 7.94667,7.54667 4.48,0 8.05333,-3.34667 8.05333,-7.54667 0,-4.10667 -3.57333,-7.45333 -8.05333,-7.45333 -4.37333,0 -7.94667,3.34666 -7.94667,7.45333 z"
     style="fill:#3044ff;fill-opacity:1;fill-rule:evenodd;stroke:none;stroke-width:1.33333325"
     id="path62" /><path
     inkscape:connector-curvature="0"
     d="m 232.31956,509.77116 c 0,21.24 17.22666,38.54666 38.49333,38.54666 21.28,0 38.50667,-17.30666 38.50667,-38.54666 0,-21.25333 -17.22667,-38.45334 -38.50667,-38.45334 -21.26667,0 -38.49333,17.20001 -38.49333,38.45334 z"
     style="fill:#3044ff;fill-opacity:1;fill-rule:evenodd;stroke:none;stroke-width:1.33333325"
     id="path64" /><path
     inkscape:connector-curvature="0"
     d="m 225.31956,517.31781 7,-7.50667 -7,-7.49333 z"
     style="fill:#3044ff;fill-opacity:1;fill-rule:evenodd;stroke:none;stroke-width:1.33333325"
     id="path66" /><path
     inkscape:connector-curvature="0"
     d="m 254.8129,510.82448 h -103"
     style="fill:none;stroke:#3044ff;stroke-width:2.60106659;stroke-linecap:round;stroke-linejoin:miter;stroke-miterlimit:1;stroke-dasharray:none;stroke-opacity:1"
     id="path68" /><path
     inkscape:connector-curvature="0"
     d="m 148.31957,509.86447 c 0,2.49334 1.74667,4.45334 3.96,4.45334 2.29334,0 4.04,-1.96 4.04,-4.45334 0,-2.58666 -1.74666,-4.54666 -4.04,-4.54666 -2.21333,0 -3.96,1.96 -3.96,4.54666 z"
     style="fill:#3044ff;fill-opacity:1;fill-rule:evenodd;stroke:none;stroke-width:1.33333325"
     id="path70" /><path
     inkscape:connector-curvature="0"
     d="m 242.31956,509.77114 c 0,15.21333 12.56,27.54667 28.05333,27.54667 15.38667,0 27.94667,-12.33334 27.94667,-27.54667 0,-15.12 -12.56,-27.45333 -27.94667,-27.45333 -15.49333,0 -28.05333,12.33333 -28.05333,27.45333 z"
     style="fill:#f6f6f6;fill-opacity:1;fill-rule:evenodd;stroke:none;stroke-width:1.33333325"
     id="path72" /><g
     id="g4226"
     transform="translate(-64.299851,-446.91869)"><path
       id="path122"
       style="fill:#3044ff;fill-opacity:1;fill-rule:evenodd;stroke:none;stroke-width:1.33333325"
       d="m 324.03536,845.85595 c 1.54666,0 2.78666,-1.56 2.78666,-3.49333 v -2.54667 c 0,-0.52 -0.34666,-0.96 -0.76,-0.96 h -3.24 c 0.08,0.29334 0.13334,0.6 0.13334,0.96 v 6.04 z"
       inkscape:connector-curvature="0" /><path
       id="path124"
       style="fill:#3044ff;fill-opacity:1;fill-rule:evenodd;stroke:none;stroke-width:1.33333325"
       d="m 329.04869,845.85595 c 1.52,0 2.77333,-1.42666 2.77333,-3.18666 v -6.94667 c 0,-0.46667 -0.33333,-0.86667 -0.73333,-0.86667 h -3.26667 c 0.0533,0.26667 0.13334,0.54667 0.13334,0.86667 v 10.13333 z"
       inkscape:connector-curvature="0" /><path
       id="path126"
       style="fill:#3044ff;fill-opacity:1;fill-rule:evenodd;stroke:none;stroke-width:1.33333325"
       d="m 342.31422,845.85595 c 0.26666,0 0.49333,-0.14666 0.62666,-0.34666 l 5.65334,-8.16 c 0.17333,-0.25334 0.22666,-0.62667 0.08,-0.90667 -0.13334,-0.29333 -0.38667,-0.46667 -0.70667,-0.46667 h -2.04 v -18.26666 c 0,-0.45334 -0.34667,-0.85334 -0.77333,-0.85334 h -5.64 c -0.42667,0 -0.77334,0.4 -0.77334,0.85334 v 18.26666 h -2.01333 c -0.28,0 -0.6,0.17334 -0.70667,0.46667 -0.2,0.28 -0.17333,0.65333 0.0267,0.90667 l 5.62667,8.16 c 0.13333,0.2 0.38666,0.34666 0.64,0.34666 z"
       inkscape:connector-curvature="0" /><path
       id="path128"
       style="fill:#3044ff;fill-opacity:1;fill-rule:evenodd;stroke:none;stroke-width:1.33333325"
       d="m 335.03536,845.85595 c 1.52,0 2.78666,-1.45333 2.78666,-3.26666 v -11.84 c 0,-0.48 -0.34666,-0.89334 -0.76,-0.89334 h -3.24 c 0.08,0.26667 0.13334,0.56 0.13334,0.89334 v 15.10666 z"
       inkscape:connector-curvature="0" /></g><g
     id="g4232"
     transform="translate(-156.29985,-318.91869)"><path
       id="path130"
       style="fill:#3044ff;fill-opacity:1;fill-rule:evenodd;stroke:none;stroke-width:1.33333325"
       d="m 427.12405,830.35709 c -3.33334,0 -6.05334,-2.65334 -6.05334,-5.90667 0,-3.25333 2.72,-5.88 6.05334,-5.88 3.33333,0 6.04,2.62667 6.04,5.88 0,3.28 -2.70667,5.90667 -6.04,5.90667 z m 2.42666,4.06666 c 0.52,0 0.97334,-0.29333 1.33334,-0.88 0.57333,-0.93333 1.4,-1.4 2.49333,-1.4 1.09333,0 1.66667,-0.56 1.66667,-1.62666 0.0267,-1.09334 0.50666,-1.90667 1.42666,-2.44 0.96,-0.56 1.17334,-1.28 0.62667,-2.25334 -0.52,-0.93333 -0.52,-1.88 0,-2.81333 0.54667,-0.92 0.33333,-1.66667 -0.62667,-2.22667 -0.94666,-0.56 -1.42666,-1.37333 -1.42666,-2.44 -0.0133,-1.09333 -0.57334,-1.62666 -1.66667,-1.62666 -1.09333,0 -1.92,-0.50667 -2.49333,-1.4 -0.37334,-0.6 -0.81334,-0.89334 -1.34667,-0.89334 -0.29333,0 -0.6,0.0933 -0.94667,0.26667 -0.46666,0.26667 -0.96,0.4 -1.45333,0.4 -0.48,0 -0.97333,-0.13333 -1.44,-0.4 -0.34667,-0.17333 -0.65333,-0.25333 -0.94667,-0.25333 -0.53333,0 -0.97333,0.29333 -1.34666,0.88 -0.57334,0.93333 -1.4,1.4 -2.49334,1.4 -1.09333,0 -1.66666,0.53333 -1.66666,1.62666 -0.0267,1.06667 -0.50667,1.88 -1.42667,2.44 -0.96,0.56 -1.17333,1.30667 -0.62667,2.22667 0.52,0.93333 0.52,1.88 0,2.81333 -0.54666,0.93334 -0.33333,1.69334 0.62667,2.25334 0.94667,0.53333 1.42667,1.34666 1.42667,2.44 0.0133,1.06666 0.57333,1.62666 1.66666,1.62666 1.09334,0.0267 1.92,0.49334 2.49334,1.4 0.36,0.58667 0.81333,0.88 1.33333,0.88 0.29333,0 0.61333,-0.0933 0.96,-0.28 0.46667,-0.26666 0.96,-0.4 1.44,-0.4 0.49333,0 0.98667,0.13334 1.45333,0.4 0.34667,0.18667 0.66667,0.28 0.96,0.28 z"
       inkscape:connector-curvature="0" /><path
       id="path132"
       style="fill:#3044ff;fill-opacity:1;fill-rule:evenodd;stroke:none;stroke-width:1.33333325"
       d="m 420.49738,844.42375 4.14667,-9.26666 v 0 l -3.32,0.44 -1.84,-3.17334 c 0,0 -3.8,8.97334 -3.84,9.02667 v 0 c 0,0 0,0 0,0 0,0 0,0 0,0 0,0 0,0 0,0 v 0 c 1.98666,0.0533 1.2,2.36 3.65333,2.4 1.06667,0 1.2,0.57333 1.2,0.57333 z"
       inkscape:connector-curvature="0" /><path
       id="path134"
       style="fill:#3044ff;fill-opacity:1;fill-rule:evenodd;stroke:none;stroke-width:1.33333325"
       d="m 433.80405,844.42372 c 2.96,-0.34666 2.38666,-1.13333 3.05334,-1.76 0.55999,-0.64 1.22667,-0.73333 1.55999,-0.73333 0.14667,0 0.22667,0.0267 0.22667,0.0267 v 0 l -4.62667,-8.53333 -1.14666,3.14666 -3.22667,-0.46667 z"
       inkscape:connector-curvature="0" /><path
       id="path136"
       style="fill:#3044ff;fill-opacity:1;fill-rule:evenodd;stroke:none;stroke-width:1.33333325"
       d="m 427.12405,828.42375 1.09333,-2.65333 2.42667,-0.41333 -1.77334,-2.06667 0.41334,-2.86667 -2.16,1.34667 -2.16,-1.34667 0.41333,2.86667 -1.73333,2.06667 2.42666,0.41333 z"
       inkscape:connector-curvature="0" /></g><g
     id="g4220"
     transform="translate(97.700145,-552.91869)"><path
       id="path138"
       style="fill:#3044ff;fill-opacity:1;fill-rule:evenodd;stroke:none;stroke-width:1.33333325"
       d="m 173.54779,813.55086 c 4.69333,0 5.52,-2.89333 5.52,-6.48 0,-3.61333 -2.46667,-6.52 -5.52,-6.52 -3.02667,0 -5.48,2.90667 -5.48,6.50667 0,3.6 0.81333,6.49333 5.48,6.49333 z"
       inkscape:connector-curvature="0" /><path
       id="path140"
       style="fill:#3044ff;fill-opacity:1;fill-rule:evenodd;stroke:none;stroke-width:1.33333325"
       d="m 176.33112,828.55074 c 5.78666,-1.2 6.61333,-3.08 6.72,-9.58666 0,-0.4 0.0133,-0.52 0.0133,-0.52 0,0 0,0 0,0.0267 v -0.70666 c 0,0 -1.38667,-3.21334 -9.48,-3.21334 -8.09333,0 -9.49333,3.21334 -9.49333,3.21334 v 0.52 c 0,-0.0133 0,-0.0133 -0.0133,-0.0133 -0.0133,0 -0.0133,0.12 0,0.46667 0.0933,6.68 0.86667,8.58667 6.73334,9.81333 0,0 0.82666,-1.2 2.76,-1.2 1.92,0 2.76,1.2 2.76,1.2 z"
       inkscape:connector-curvature="0" /></g><g
     transform="matrix(1.3333333,0,0,-1.3333333,171.27641,270.52199)"
     id="g142"><g
       id="g144"
       clip-path="url(#clipPath148)"><text
   transform="matrix(1,0,0,-1,39.475,191.52)"
   style="font-variant:normal;font-weight:bold;font-size:12.77499962px;font-family:Arial;-inkscape-font-specification:Arial-BoldMT;writing-mode:lr-tb;fill:#000000;fill-opacity:1;fill-rule:nonzero;stroke:none"
   id="text152"><tspan
     x="0 3.0276749 12.046825 20.325026 29.344175 38.363323 41.390999 51.1511 59.429298"
     y="0"
     id="tspan150">INSCRIÇÃO</tspan></text>

</g></g><g
     transform="matrix(1.3333333,0,0,-1.3333333,-101.01171,924.36944)"
     id="g154"><g
       id="g156"
       clip-path="url(#clipPath160)"><text
   transform="matrix(1,0,0,-1,298.65,368.7)"
   style="font-variant:normal;font-weight:normal;font-size:11.27499962px;font-family:ArialMT;-inkscape-font-specification:ArialMT;writing-mode:lr-tb;fill:#000000;fill-opacity:1;fill-rule:nonzero;stroke:none"
   id="text164"><tspan
     x="0 6.7537251 12.752025 16.495325 18.750324 24.748625 30.746925 36.745224 42.743526 46.486824 52.485126 58.483425 61.482574 67.480873 70.480026 80.244179 86.242477 92.2295 98.227798 104.21483 106.46983 112.46812 115.46728 121.46558 123.72057 129.71887 135.71718 141.71547 147.7025 150.70164 152.95665 156.71123 162.70952 168.70782"
     y="0"
     id="tspan162">Ao longo de 3 meses o alunos irão </tspan></text>

</g></g><g
     transform="matrix(1.3333333,0,0,-1.3333333,-101.01171,924.36944)"
     id="g166"><g
       id="g168"
       clip-path="url(#clipPath172)"><text
   transform="matrix(1,0,0,-1,298.65,353.67)"
   style="font-variant:normal;font-weight:normal;font-size:11.27499962px;font-family:ArialMT;-inkscape-font-specification:ArialMT;writing-mode:lr-tb;fill:#000000;fill-opacity:1;fill-rule:nonzero;stroke:none"
   id="text176"><tspan
     x="0 5.9983001 11.9966 17.983625 23.981924 29.980225 35.234375 41.232674 43.487675 48.741825 54.740124 58.494701 62.226727 68.225021 74.212051 77.211197 83.209503 89.207802 95.194824 101.19312 104.19228 106.44727 112.44557 118.4326 120.6876 126.67462 132.67293 142.43707 144.69208 150.69037 156.68867 162.6757 168.674"
     y="0"
     id="tspan174">desenvolver os desafios com base </tspan></text>

</g></g><g
     transform="matrix(1.3333333,0,0,-1.3333333,-101.01171,924.36944)"
     id="g178"><g
       id="g180"
       clip-path="url(#clipPath184)"><text
   transform="matrix(1,0,0,-1,309.92,337.9)"
   style="font-variant:normal;font-weight:normal;font-size:11.27499962px;font-family:ArialMT;-inkscape-font-specification:ArialMT;writing-mode:lr-tb;fill:#000000;fill-opacity:1;fill-rule:nonzero;stroke:none"
   id="text188"><tspan
     x="0 5.9983001 11.9966 17.983625 20.982775 26.981075 32.968102 38.9664 44.964699 50.951725 53.206726 56.205875 58.460876 64.447899 70.446198 76.433228 82.431526 88.429825 94.416847 97.416 99.670998 107.91302 113.91132 119.90962 125.90793 128.16292 134.16122 140.15953 146.14655"
     y="0"
     id="tspan186">nas especificações. Reuniões </tspan></text>

</g></g><g
     transform="matrix(1.3333333,0,0,-1.3333333,-101.01171,924.36944)"
     id="g190"><g
       id="g192"
       clip-path="url(#clipPath196)"><text
   transform="matrix(1,0,0,-1,312.17,322.88)"
   style="font-variant:normal;font-weight:normal;font-size:11.27499962px;font-family:ArialMT;-inkscape-font-specification:ArialMT;writing-mode:lr-tb;fill:#000000;fill-opacity:1;fill-rule:nonzero;stroke:none"
   id="text200"><tspan
     x="0 5.9870248 11.985325 21.726925 27.725225 33.723526 39.721825 41.976826 47.963848 50.218849 56.205875 62.204174 71.945778 74.200775 81.721199 85.475777 91.451523 94.450676 100.44897 106.436 112.42303 118.42133 122.1759 128.17419 134.16122 136.41623 142.41452"
     y="0"
     id="tspan198">semanais com Professores e </tspan></text>

</g></g><g
     transform="matrix(1.3333333,0,0,-1.3333333,-101.01171,924.36944)"
     id="g202"><g
       id="g204"
       clip-path="url(#clipPath208)"><text
   transform="matrix(1,0,0,-1,348.2,307.85)"
   style="font-variant:normal;font-weight:normal;font-size:11.27499962px;font-family:ArialMT;-inkscape-font-specification:ArialMT;writing-mode:lr-tb;fill:#000000;fill-opacity:1;fill-rule:nonzero;stroke:none"
   id="text212"><tspan
     x="0 6.0095749 12.030425 14.285425 20.306274 26.327126 32.347977 36.102551 42.123402 48.144249 54.1651 57.919674 63.940525"
     y="0"
     id="tspan210">colaboradores</tspan></text>

</g></g><g
     transform="matrix(1.3333333,0,0,-1.3333333,-241.73206,401.53047)"
     id="g214"><g
       id="g216"
       clip-path="url(#clipPath220)"><text
   transform="matrix(1,0,0,-1,250.2,84.275)"
   style="font-variant:normal;font-weight:bold;font-size:12.77499962px;font-family:Arial;-inkscape-font-specification:Arial-BoldMT;writing-mode:lr-tb;fill:#000000;fill-opacity:1;fill-rule:nonzero;stroke:none"
   id="text224"><tspan
     x="0 8.2526503 17.259026 25.511675 34.518051 42.016975 51.02335 60.7579"
     y="0"
     id="tspan222">ABERTURA</tspan></text>

</g></g><g
     transform="matrix(1.3333333,0,0,-1.3333333,-104.44392,925.51354)"
     id="g226"><g
       id="g228"
       clip-path="url(#clipPath232)"><text
   transform="matrix(1,0,0,-1,338.08,385.02)"
   style="font-variant:normal;font-weight:bold;font-size:12.77499962px;font-family:Arial;-inkscape-font-specification:Arial-BoldMT;writing-mode:lr-tb;fill:#000000;fill-opacity:1;fill-rule:nonzero;stroke:none"
   id="text236"><tspan
     x="0 8.2782001 17.29735 25.57555 33.100025 41.378223 51.138325 59.416527 69.176628 78.195778"
     y="0"
     id="tspan234">ACELERAÇÃO</tspan></text>

</g></g><g
     transform="matrix(1.3333333,0,0,-1.3333333,-353.85071,745.89486)"
     id="g238"><g
       id="g240"
       clip-path="url(#clipPath244)"><text
   transform="matrix(1,0,0,-1,440.3,83.125)"
   style="font-variant:normal;font-weight:bold;font-size:12.77499962px;font-family:Arial;-inkscape-font-specification:Arial-BoldMT;writing-mode:lr-tb;fill:#000000;fill-opacity:1;fill-rule:nonzero;stroke:none"
   id="text248"><tspan
     x="0 9.0063753 17.259026 27.00635 36.753674 45.760052 54.766426"
     y="0"
     id="tspan246">DEMODAY</tspan></text>

</g></g><g
     transform="matrix(1.3333333,0,0,-1.3333333,-698.20875,800.84541)"
     id="g250"><g
       id="g252"
       clip-path="url(#clipPath256)"><text
   transform="matrix(1,0,0,-1,557.77,198.52)"
   style="font-variant:normal;font-weight:bold;font-size:12.77499962px;font-family:Arial;-inkscape-font-specification:Arial-BoldMT;writing-mode:lr-tb;fill:#000000;fill-opacity:1;fill-rule:nonzero;stroke:none"
   id="text260"><tspan
     x="0 9.0063753 18.7537 27.760075 35.258999 44.265373 52.518024 60.7579 69.764275 79.498825 88.505203"
     y="0"
     id="tspan258">CONTRATAÇÃO</tspan></text>

</g></g><g
     transform="matrix(1.3333333,0,0,-1.3333333,141.53066,599.46268)"
     id="g262"><g
       id="g264"
       clip-path="url(#clipPath268)"><text
   transform="matrix(1,0,0,-1,130.4,312.75)"
   style="font-variant:normal;font-weight:normal;font-size:11.25px;font-family:ArialMT;-inkscape-font-specification:ArialMT;writing-mode:lr-tb;fill:#000000;fill-opacity:1;fill-rule:nonzero;stroke:none"
   id="text272"><tspan
     x="0 6.7725 12.04875 18.078751 20.328751 22.578751 28.608749 34.627499 40.657501 46.6875 51.19875 57.228748 63.258751 69.28875 71.53875 73.78875 76.815002 82.845001 85.871246 88.121246 93.397499 99.427498 103.93875 109.96875 115.99875 122.0175"
     y="0"
     id="tspan270">Avaliação qualitativa dos </tspan></text>

</g></g><g
     transform="matrix(1.3333333,0,0,-1.3333333,141.53066,599.46268)"
     id="g274"><g
       id="g276"
       clip-path="url(#clipPath280)"><text
   transform="matrix(1,0,0,-1,140.93,297.73)"
   style="font-variant:normal;font-weight:normal;font-size:11.27499962px;font-family:ArialMT;-inkscape-font-specification:ArialMT;writing-mode:lr-tb;fill:#000000;fill-opacity:1;fill-rule:nonzero;stroke:none"
   id="text284"><tspan
     x="0 5.9983001 8.2532997 14.2516 20.249901 26.248199 32.235226 35.234375 41.221401 47.2197 49.474701 55.473 61.460026 63.715027 69.713326 75.711624 81.709923 87.708221 93.706528"
     y="0"
     id="tspan282">alunos selecionados</tspan></text>

</g></g><g
     transform="matrix(1.3333333,0,0,-1.3333333,-353.85071,745.89486)"
     id="g286"><g
       id="g288"
       clip-path="url(#clipPath292)"><text
   transform="matrix(1,0,0,-1,386.55,68)"
   style="font-variant:normal;font-weight:normal;font-size:11.27499962px;font-family:ArialMT;-inkscape-font-specification:ArialMT;writing-mode:lr-tb;fill:#000000;fill-opacity:1;fill-rule:nonzero;stroke:none"
   id="text296"><tspan
     x="0 6.7537251 12.752025 16.506599 22.5049 28.491924 34.490227 40.488525 43.487675 49.485973 55.473 61.471298 67.469597 70.46875 76.467049 82.465347 88.463654 92.218224 95.217377 101.21568 104.95898 110.95728 116.95557 120.71015 126.70845 129.7076 132.70676 138.70505 144.70335 150.70164 156.68867 159.68782 165.68613 171.67316"
     y="0"
     id="tspan294">Apresentação aberta para todas as </tspan></text>

</g></g><g
     transform="matrix(1.3333333,0,0,-1.3333333,-353.85071,745.89486)"
     id="g298"><g
       id="g300"
       clip-path="url(#clipPath304)"><text
   transform="matrix(1,0,0,-1,382.77,52.975)"
   style="font-variant:normal;font-weight:normal;font-size:11.27499962px;font-family:ArialMT;-inkscape-font-specification:ArialMT;writing-mode:lr-tb;fill:#000000;fill-opacity:1;fill-rule:nonzero;stroke:none"
   id="text308"><tspan
     x="0 6.0208502 15.785 21.805849 25.560425 31.603825 37.6134 43.634251 49.643826 51.921375 57.942226 63.963074 67.717651 70.761902 73.039452 79.049026 81.326576 87.347427 93.368279 99.389122 102.41083 108.43168 114.44125 116.7188 122.73965 128.7605 132.52635 138.5472 142.30177 148.34517 154.36603 158.12061 164.164 173.92815 179.94901"
     y="0"
     id="tspan306">empresas participantes do programa </tspan></text>

</g></g><g
     transform="matrix(1.3333333,0,0,-1.3333333,-353.85071,745.89486)"
     id="g310"><g
       id="g312"
       clip-path="url(#clipPath316)"><text
   transform="matrix(1,0,0,-1,438.35,37.2)"
   style="font-variant:normal;font-weight:normal;font-size:11.27499962px;font-family:ArialMT;-inkscape-font-specification:ArialMT;writing-mode:lr-tb;fill:#000000;fill-opacity:1;fill-rule:nonzero;stroke:none"
   id="text320"><tspan
     x="0 5.9983001 11.9966 14.99575 20.994049 26.981075 32.979374 35.234375 41.232674 44.987251 50.98555 56.972576 62.970875"
     y="0"
     id="tspan318">de aceleração</tspan></text>

</g></g><g
     transform="matrix(1.3333333,0,0,-1.3333333,-696.20876,795.36542)"
     id="g322"><g
       id="g324"
       clip-path="url(#clipPath328)"><text
   transform="matrix(1,0,0,-1,521.05,179.9)"
   style="font-variant:normal;font-weight:normal;font-size:11.27499962px;font-family:ArialMT;-inkscape-font-specification:ArialMT;writing-mode:lr-tb;fill:#000000;fill-opacity:1;fill-rule:nonzero;stroke:none"
   id="text332"><tspan
     x="0 7.5204248 17.284575 19.539576 25.54915 31.57 37.579575 43.600426 45.855427 51.876274 57.897125 60.918823 63.173824 69.194672 72.216377 78.237228 81.991798 88.035202 94.044777 100.05435 106.0752 109.0969 115.11775 121.1386 127.14818 129.40317 135.42403 145.18817 151.20903 154.96359 161.007 167.01657 173.03743 179.047"
     y="0"
     id="tspan330">Em caso de interesse das empresas </tspan></text>

</g></g><g
     transform="matrix(1.3333333,0,0,-1.3333333,-696.20876,795.36542)"
     id="g334"><g
       id="g336"
       clip-path="url(#clipPath340)"><text
   transform="matrix(1,0,0,-1,536.83,164.85)"
   style="font-variant:normal;font-weight:normal;font-size:11.25px;font-family:ArialMT;-inkscape-font-specification:ArialMT;writing-mode:lr-tb;fill:#000000;fill-opacity:1;fill-rule:nonzero;stroke:none"
   id="text344"><tspan
     x="0 5.9962502 11.9925 15.73875 21.735001 27.731251 29.981251 33.727501 39.735001 45.720001 48.723751 50.973751 56.970001 62.966251 68.962502 74.947502 77.951248 80.201248 86.197502 88.447502 94.443748 100.44 110.1825 116.17875 122.175 125.17875 131.175 134.91 140.90625 146.9025"
     y="0"
     id="tspan342">parceiras, após julgamento no </tspan></text>

</g></g><g
     transform="matrix(1.3333333,0,0,-1.3333333,-696.20876,795.36542)"
     id="g346"><g
       id="g348"
       clip-path="url(#clipPath352)"><text
   transform="matrix(1,0,0,-1,536.08,149.08)"
   style="font-variant:normal;font-weight:normal;font-size:11.27499962px;font-family:ArialMT;-inkscape-font-specification:ArialMT;writing-mode:lr-tb;fill:#000000;fill-opacity:1;fill-rule:nonzero;stroke:none"
   id="text356"><tspan
     x="0 8.2420254 14.240325 23.981924 29.980225 35.978523 41.976826 47.230976 50.230125 53.229275 59.227573 65.2146 67.469597 77.211197 83.209503 85.4645 91.462799 97.461098 101.21568 107.21397 113.201 116.20015 122.19845 124.45345 130.45175 136.45004 142.44835 148.43538"
     y="0"
     id="tspan354">Demoday, os melhores alunos </tspan></text>

</g></g><g
     transform="matrix(1.3333333,0,0,-1.3333333,-696.20876,795.36542)"
     id="g358"><g
       id="g360"
       clip-path="url(#clipPath364)"><text
   transform="matrix(1,0,0,-1,550.35,134.05)"
   style="font-variant:normal;font-weight:normal;font-size:11.27499962px;font-family:ArialMT;-inkscape-font-specification:ArialMT;writing-mode:lr-tb;fill:#000000;fill-opacity:1;fill-rule:nonzero;stroke:none"
   id="text368"><tspan
     x="0 5.9983001 11.9966 17.9949 23.9932 27.747774 33.746075 39.744373 43.487675 49.474701 55.473 59.227573 61.471298 67.458328 73.456627 79.454926 82.454079 86.208649 92.206947 95.2061 101.2044 107.2027 113.201"
     y="0"
     id="tspan366">poderão ser contratados</tspan></text>

</g></g><g
     transform="matrix(1.3333333,0,0,-1.3333333,-241.73206,401.53047)"
     id="g370"><g
       id="g372"
       clip-path="url(#clipPath376)"><text
   transform="matrix(1,0,0,-1,221.15,68)"
   style="font-variant:normal;font-weight:normal;font-size:11.27499962px;font-family:ArialMT;-inkscape-font-specification:ArialMT;writing-mode:lr-tb;fill:#000000;fill-opacity:1;fill-rule:nonzero;stroke:none"
   id="text380"><tspan
     x="0 9.0087252 15.0183 17.2733 23.294149 29.315001 35.324574 41.345425 44.344574 46.599575 52.620426 58.630001 60.884998 63.139999 69.160851 75.170425 81.191277 83.446274 87.200851 93.221703 99.242554 105.2634 111.27297 114.27213 120.29298 126.31383 132.32339"
     y="0"
     id="tspan378">Os desafios inspirados nas </tspan></text>

</g></g><g
     transform="matrix(1.3333333,0,0,-1.3333333,-241.73206,401.53047)"
     id="g382"><g
       id="g384"
       clip-path="url(#clipPath388)"><text
   transform="matrix(1,0,0,-1,218.9,52.975)"
   style="font-variant:normal;font-weight:normal;font-size:11.27499962px;font-family:ArialMT;-inkscape-font-specification:ArialMT;writing-mode:lr-tb;fill:#000000;fill-opacity:1;fill-rule:nonzero;stroke:none"
   id="text392"><tspan
     x="0 5.9983001 11.9966 21.76075 27.75905 33.757351 39.75565 45.753948 51.740974 53.995975 59.994274 65.992577 71.979599 74.978752 80.977051 90.741203 96.739502 100.49407 106.49238 112.4794 118.4777 124.46472 126.71973 130.4743 136.4726"
     y="0"
     id="tspan390">demandas das empresas (e </tspan></text>

</g></g><g
     transform="matrix(1.3333333,0,0,-1.3333333,-241.73206,401.53047)"
     id="g394"><g
       id="g396"
       clip-path="url(#clipPath400)"><text
   transform="matrix(1,0,0,-1,218.15,37.2)"
   style="font-variant:normal;font-weight:normal;font-size:11.27499962px;font-family:ArialMT;-inkscape-font-specification:ArialMT;writing-mode:lr-tb;fill:#000000;fill-opacity:1;fill-rule:nonzero;stroke:none"
   id="text404"><tspan
     x="0 2.99915 8.9974499 14.984475 20.982775 26.981075 29.236074 35.234375 41.232674 43.487675 49.485973 55.473 58.472149 64.470451 70.46875 76.467049 79.466202 85.4645 91.462799 97.461098 103.44813 107.2027 110.20185 116.18887 122.18717 125.94175 131.94005 137.93835"
     y="0"
     id="tspan402">tecnologias adotadas) serão </tspan></text>

</g></g><g
     transform="matrix(1.3333333,0,0,-1.3333333,-241.73206,401.53047)"
     id="g406"><g
       id="g408"
       clip-path="url(#clipPath412)"><text
   transform="matrix(1,0,0,-1,219.65,22.175)"
   style="font-variant:normal;font-weight:normal;font-size:11.27499962px;font-family:ArialMT;-inkscape-font-specification:ArialMT;writing-mode:lr-tb;fill:#000000;fill-opacity:1;fill-rule:nonzero;stroke:none"
   id="text416"><tspan
     x="0 5.9983001 8.2532997 14.240325 20.238625 26.236925 32.235226 34.490227 40.488525 42.743526 44.998524 47.253525 53.240551 59.23885 65.237152 71.235451 77.222473 80.965775 86.964073 92.962372 98.949402 101.94855 107.94685 110.20185 116.20015 122.19845 128.19675"
     y="0"
     id="tspan414">disponibilizados aos alunos</tspan></text>

</g></g><g
     id="g4216"
     transform="translate(33.700149,-172.9187)"><path
       id="path30"
       style="fill:#3044ff;fill-opacity:1;fill-rule:evenodd;stroke:none;stroke-width:1.33333325"
       d="m 240.89231,309.41964 c -4.22667,0 -8.21333,-3.69333 -7.38667,-8.73333 0.49334,-3.17334 2.97334,-5.65334 6.04,-6.24 0.45333,-0.08 0.90667,-0.12 1.33333,-0.12 6.44,0 10.14667,7.97333 5.30667,12.8 -1.56,1.58666 -3.45333,2.29333 -5.29333,2.29333 z m 1.82666,3.45333 c 0.30667,0 0.6,-0.29333 0.6,-0.6 v -0.58666 c 0,-0.2 0.2,-0.4 0.4,-0.49334 0.58667,-0.2 1.18667,-0.4 1.68,-0.69333 0.12,-0.0533 0.22667,-0.0667 0.32,-0.0667 0.13334,0 0.25334,0.04 0.37334,0.16 l 0.4,0.4 c 0.0933,0.0933 0.24,0.14667 0.38666,0.14667 0.14667,0 0.30667,-0.0533 0.4,-0.14667 l 2.68,-2.68 c 0.2,-0.2 0.2,-0.58666 0,-0.78666 l -0.4,-0.4 c -0.2,-0.2 -0.2,-0.49334 -0.0933,-0.69334 0.29334,-0.6 0.49334,-1.09333 0.69334,-1.68 0.0933,-0.30666 0.29333,-0.4 0.58666,-0.50666 h 0.49334 c 0.4,0 0.6,-0.18667 0.6,-0.49334 v -3.76 c 0,-0.30666 -0.2,-0.6 -0.6,-0.6 h -0.49334 c -0.29333,0 -0.49333,-0.2 -0.58666,-0.4 -0.2,-0.58666 -0.4,-1.18666 -0.69334,-1.68 -0.10666,-0.2 -0.10666,-0.49333 0.0933,-0.69333 l 0.4,-0.4 c 0.2,-0.18667 0.2,-0.58667 0,-0.78667 l -2.68,-2.68 c -0.0933,-0.0933 -0.22666,-0.14666 -0.36,-0.14666 -0.13333,0 -0.28,0.0533 -0.42666,0.14666 l -0.4,0.4 c -0.12,0.12 -0.26667,0.16 -0.41334,0.16 -0.10666,0 -0.2,-0.0133 -0.28,-0.0667 -0.49333,-0.29334 -1.09333,-0.49334 -1.68,-0.69334 -0.2,-0.0933 -0.4,-0.29333 -0.4,-0.58666 v -0.6 c 0,-0.29334 -0.29333,-0.49334 -0.6,-0.49334 h -3.76 c -0.30666,0 -0.49333,0.2 -0.49333,0.49334 v 0.69333 c 0,0.30667 -0.2,0.49333 -0.50666,0.6 -0.58667,0.0933 -1.08,0.4 -1.68,0.58667 -0.08,0.0933 -0.18667,0.12 -0.29334,0.12 -0.13333,0 -0.28,-0.0533 -0.4,-0.12 l -0.4,-0.49334 c -0.0933,-0.0933 -0.24,-0.14666 -0.38666,-0.14666 -0.14667,0 -0.30667,0.0533 -0.4,0.14666 l -2.68,2.68 c -0.2,0.2 -0.2,0.6 0,0.78667 l 0.4,0.4 c 0.2,0.2 0.2,0.49333 0.0933,0.69333 -0.29334,0.49334 -0.49334,1.09334 -0.69334,1.68 -0.0933,0.2 -0.29333,0.4 -0.49333,0.4 h -0.58667 c -0.30666,0 -0.6,0.29334 -0.6,0.6 v 3.76 c 0,0.30667 0.29334,0.49334 0.6,0.49334 h 0.58667 c 0.2,0.10666 0.49333,0.2 0.49333,0.50666 0.2,0.58667 0.4,1.08 0.69334,1.68 0.2,0.2 0.10666,0.49334 -0.0933,0.69334 l -0.4,0.4 c -0.2,0.2 -0.2,0.58666 0,0.78666 l 2.68,2.68 c 0.0933,0.0933 0.25333,0.14667 0.4,0.14667 0.14666,0 0.29333,-0.0533 0.38666,-0.14667 l 0.4,-0.4 c 0.12,-0.12 0.28,-0.21333 0.44,-0.21333 0.0933,0 0.18667,0.04 0.25334,0.12 0.6,0.29333 1.09333,0.49333 1.68,0.69333 0.30666,0.0933 0.50666,0.29334 0.50666,0.49334 v 0.58666 c 0,0.30667 0.18667,0.6 0.49333,0.6 z"
       inkscape:connector-curvature="0" /><path
       id="path32"
       style="fill:#3044ff;fill-opacity:1;fill-rule:evenodd;stroke:none;stroke-width:1.33333325"
       d="m 240.39511,308.8729 c 5.68,0 8.61333,-6.98666 4.56,-11.09333 -1.30667,-1.32 -2.89333,-1.90667 -4.46667,-1.90667 -3.30666,0 -6.48,2.62667 -6.48,6.53334 0,3.58666 2.84,6.46666 6.38667,6.46666 z"
       inkscape:connector-curvature="0" /><path
       id="path34"
       style="fill:#3044ff;fill-opacity:1;fill-rule:evenodd;stroke:none;stroke-width:1.33333325"
       d="m 231.29235,324.3396 c -2.89334,0 -5.66667,-2.69333 -5.06667,-6.37333 0.38667,-2.22667 2.10667,-3.96 4.2,-4.36 0.33333,-0.0533 0.64,-0.0933 0.94667,-0.0933 4.30666,0 6.76,5.70667 3.45333,9.21334 -1.02667,1.12 -2.29333,1.61333 -3.53333,1.61333 z m 1.24,2.53333 c 0.18666,0 0.38666,-0.2 0.38666,-0.4 v -0.41333 c 0,-0.2 0.0933,-0.30667 0.28,-0.4 0.38667,-0.10667 0.86667,-0.30667 1.24,-0.50667 0.0533,-0.0533 0.12,-0.08 0.2,-0.08 0.0667,0 0.13334,0.0267 0.18667,0.08 l 0.29333,0.30667 c 0.0933,0.04 0.18667,0.0667 0.28,0.0667 0.0933,0 0.18667,-0.0267 0.29334,-0.0667 l 1.72,-1.93333 c 0.18666,-0.0933 0.18666,-0.4 0,-0.6 l -0.2,-0.2 c -0.0933,-0.21334 -0.0933,-0.41334 0,-0.50667 0.2,-0.41333 0.29333,-0.81333 0.48,-1.32 0,-0.10667 0.18666,-0.30667 0.38666,-0.30667 h 0.37334 c 0.2,0 0.38666,-0.0933 0.38666,-0.4 v -2.64 c 0,-0.30666 -0.18666,-0.4 -0.38666,-0.4 h -0.46667 c -0.10667,0 -0.29333,-0.2 -0.38667,-0.30666 -0.0933,-0.50667 -0.18666,-0.90667 -0.48,-1.32 0,-0.0933 0,-0.29334 0.0933,-0.50667 l 0.29334,-0.29333 c 0.18666,-0.10667 0.18666,-0.41334 0,-0.50667 l -1.81334,-1.93333 c -0.0533,-0.0933 -0.14666,-0.14667 -0.24,-0.14667 -0.10666,0 -0.2,0.0533 -0.24,0.14667 l -0.29333,0.30666 c -0.0933,0.0533 -0.18667,0.08 -0.26667,0.08 -0.0933,0 -0.16,-0.0267 -0.21333,-0.08 -0.37333,-0.2 -0.76,-0.4 -1.24,-0.50666 -0.0933,0 -0.28,-0.2 -0.28,-0.4 v -0.41334 c 0,-0.2 -0.0933,-0.4 -0.38667,-0.4 h -2.48 c -0.2,0 -0.38666,0.2 -0.38666,0.4 v 0.41334 c 0,0.2 -0.0933,0.4 -0.28,0.4 -0.48,0.10666 -0.86667,0.30666 -1.24,0.50666 -0.0533,0.0533 -0.13334,0.08 -0.21334,0.08 -0.08,0 -0.17333,-0.0267 -0.26666,-0.08 l -0.29334,-0.30666 c -0.04,-0.0933 -0.14666,-0.14667 -0.24,-0.14667 -0.0933,0 -0.18666,0.0533 -0.24,0.14667 l -1.81333,1.93333 c -0.18667,0.0933 -0.18667,0.4 0,0.50667 l 0.29333,0.29333 c 0.0933,0.21333 0.0933,0.41333 0.0933,0.50667 -0.18666,0.41333 -0.38666,0.81333 -0.48,1.32 -0.0933,0.2 -0.28,0.30666 -0.38666,0.30666 h -0.37334 c -0.29333,0 -0.38666,0.2 -0.38666,0.4 v 2.73334 c 0,0.21333 0.0933,0.41333 0.38666,0.41333 h 0.37334 c 0.2,0 0.29333,0.0933 0.38666,0.30667 0.0933,0.4 0.29334,0.8 0.48,1.21333 0.0933,0.2 0,0.4 -0.0933,0.50667 l -0.29333,0.29333 c -0.0933,0.10667 -0.0933,0.41333 0,0.61333 l 1.81333,1.82667 c 0.10667,0.0933 0.2,0.14667 0.29334,0.14667 0.0933,0 0.18666,-0.0533 0.28,-0.14667 l 0.2,-0.30667 c 0.0933,-0.0533 0.18666,-0.08 0.26666,-0.08 0.08,0 0.16,0.0267 0.21334,0.08 0.37333,0.2 0.85333,0.4 1.24,0.50667 0.18666,0.0933 0.28,0.2 0.28,0.4 v 0.41333 c 0,0.2 0.18666,0.4 0.38666,0.4 z"
       inkscape:connector-curvature="0" /><path
       id="path36"
       style="fill:#3044ff;fill-opacity:1;fill-rule:evenodd;stroke:none;stroke-width:1.33333325"
       d="m 231.56507,322.8729 c 3.81333,0 5.68,-4.85333 3.04,-7.64 -0.89333,-0.94666 -1.98667,-1.36 -3.05333,-1.36 -2.2,0 -4.30667,1.8 -4.30667,4.45334 0,2.58666 1.96,4.54666 4.32,4.54666 z"
       inkscape:connector-curvature="0" /></g></svg>