<?xml version="1.0" encoding="UTF-8" standalone="no"?>
<svg
   xmlns:dc="http://purl.org/dc/elements/1.1/"
   xmlns:cc="http://creativecommons.org/ns#"
   xmlns:rdf="http://www.w3.org/1999/02/22-rdf-syntax-ns#"
   xmlns:svg="http://www.w3.org/2000/svg"
   xmlns="http://www.w3.org/2000/svg"
   viewBox="0 0 960 540"
   height="540"
   width="960"
   xml:space="preserve"
   id="svg2"
   version="1.1"><metadata
     id="metadata8"><rdf:RDF><cc:Work
         rdf:about=""><dc:format>image/svg+xml</dc:format><dc:type
           rdf:resource="http://purl.org/dc/dcmitype/StillImage" /></cc:Work></rdf:RDF></metadata><defs
     id="defs6"><clipPath
       id="clipPath20"
       clipPathUnits="userSpaceOnUse"><path
         id="path18"
         d="M 0,0 H 365760 V 205740 H 0 Z" /></clipPath></defs><g
     transform="matrix(1.3333333,0,0,-1.3333333,0,540)"
     id="g10"><g
       transform="matrix(1,0,0,-1,0,405)"
       id="g12"><g
         transform="scale(0.0019685)"
         id="g14"><g
           clip-path="url(#clipPath20)"
           id="g16"><g
             id="g22"><g
               id="g24"><g
                 id="g26"><path
                   id="path28"
                   style="fill:#000000;fill-opacity:0;fill-rule:evenodd;stroke:none"
                   d="M 0,0 H 365760 V 205740 H 0 Z" /></g></g></g><g
             id="g30"><g
               id="g32"><path
                 id="path34"
                 style="fill:#000000;fill-opacity:1;fill-rule:evenodd;stroke:none"
                 d="m 274256.1,107053.42 c -1132.07,0 -2031.07,832.6 -2130.7,1964.67 h -7026.68 c -166.66,-1031.82 -1398.32,-1431.52 -2131.32,-765.57 -765.56,699.16 -432.9,1931.46 533.16,2197.72 -632.76,7858.66 -7192.7,13919.29 -15085.2,13919.29 -7891.86,0 -14452.46,-6060.63 -15118.41,-13919.29 966.05,-266.26 1298.72,-1498.56 533.16,-2164.51 -733,-699.16 -1931.47,-299.46 -2098.11,732.36 h -8091.72 c -100.25,-598.92 -599.55,-1031.82 -1165.9,-1065.02 -665.96,-8092.34 -7425.76,-14318.99 -15550.66,-14318.99 -8092.36,0 -14852.16,6226.65 -15518.11,14318.99 -599.55,33.2 -1065.66,466.1 -1165.27,1065.02 h -8059.14 c -166.01,-1031.82 -1365.1,-1431.52 -2130.67,-765.57 -733,699.16 -432.91,1931.46 532.5,2197.72 -632.75,7858.66 -7192.7,13919.29 -15085.19,13919.29 -7891.86,0 -14485.01,-6060.63 -15117.76,-13919.29 965.4,-266.26 1298.7,-1498.56 532.5,-2197.72 -765.56,-665.95 -1964.66,-266.25 -2131.31,765.57 h -8058.5 c -99.61,-598.92 -599.57,-1031.82 -1198.47,-1065.02 -699.8,-8059.14 -7426.4,-14219.39 -15518.1,-14219.39 -8058.51,0 -14785.11,6160.25 -15484.91,14219.39 -598.91,33.2 -1098.86,466.1 -1198.46,1065.02 h -8258.36 c -266.26,-2763.43 -4295.83,-2530.38 -4295.83,199.85 0,2697.66 4029.57,2930.71 4295.83,199.85 h 8258.36 c 133.44,999.25 1365.11,1432.15 2131.31,733 732.36,-665.96 432.91,-1931.47 -566.35,-2164.52 632.76,-7892.5 7226.55,-13953.13 15118.41,-13953.13 7891.85,0 14485.64,6060.63 15118.4,13953.13 -999.26,266.25 -1298.71,1498.56 -533.15,2164.52 766.19,699.15 1964.66,266.25 2131.32,-733 h 8058.5 c 100.25,566.35 566.35,1032.45 1165.9,1065.65 665.95,8092.35 7425.75,14285.79 15517.47,14285.79 8125.55,0 14852.14,-6193.44 15518.09,-14285.79 599.57,-33.2 1098.87,-466.1 1198.47,-1065.65 h 8059.14 c 166.02,999.25 1365.13,1432.15 2130.69,733 732.99,-665.96 432.89,-1898.27 -532.51,-2164.52 632.75,-7892.5 7192.7,-13953.13 15118.4,-13953.13 7891.86,0 14485.64,6060.63 15118.39,13953.13 -999.25,233.05 -1298.7,1498.56 -566.34,2164.52 765.56,699.15 1964.67,266.25 2131.31,-733 H 231732 c 66.39,599.55 566.34,1032.45 1165.25,1065.65 666.59,8092.35 7426.41,14319 15518.11,14319 8125.54,0 14852.14,-6226.65 15518.11,-14319 598.91,-33.2 1065.65,-466.1 1165.25,-1065.65 h 7026.68 c 199.22,1865.05 2497.2,2597.41 3729.5,1232.3 1231.66,-1398.31 266.26,-3596.67 -1598.8,-3596.67 z" /></g><path
               id="path36"
               style="fill:none;stroke:#000000;stroke-width:762;stroke-linecap:butt;stroke-linejoin:round;stroke-miterlimit:8;stroke-dasharray:none;stroke-opacity:1"
               d="m 274256.1,107053.42 c -1132.07,0 -2031.07,832.6 -2130.7,1964.67 h -7026.68 c -166.66,-1031.82 -1398.32,-1431.52 -2131.32,-765.57 -765.56,699.16 -432.9,1931.46 533.16,2197.72 -632.76,7858.66 -7192.7,13919.29 -15085.2,13919.29 -7891.86,0 -14452.46,-6060.63 -15118.41,-13919.29 966.05,-266.26 1298.72,-1498.56 533.16,-2164.51 -733,-699.16 -1931.47,-299.46 -2098.11,732.36 h -8091.72 c -100.25,-598.92 -599.55,-1031.82 -1165.9,-1065.02 -665.96,-8092.34 -7425.76,-14318.99 -15550.66,-14318.99 -8092.36,0 -14852.16,6226.65 -15518.11,14318.99 -599.55,33.2 -1065.66,466.1 -1165.27,1065.02 h -8059.14 c -166.01,-1031.82 -1365.1,-1431.52 -2130.67,-765.57 -733,699.16 -432.91,1931.46 532.5,2197.72 -632.75,7858.66 -7192.7,13919.29 -15085.19,13919.29 -7891.86,0 -14485.01,-6060.63 -15117.76,-13919.29 965.4,-266.26 1298.7,-1498.56 532.5,-2197.72 -765.56,-665.95 -1964.66,-266.25 -2131.31,765.57 h -8058.5 c -99.61,-598.92 -599.57,-1031.82 -1198.47,-1065.02 -699.8,-8059.14 -7426.4,-14219.39 -15518.1,-14219.39 -8058.51,0 -14785.11,6160.25 -15484.91,14219.39 -598.91,33.2 -1098.86,466.1 -1198.46,1065.02 h -8258.36 c -266.26,-2763.43 -4295.83,-2530.38 -4295.83,199.85 0,2697.66 4029.57,2930.71 4295.83,199.85 h 8258.36 c 133.44,999.25 1365.11,1432.15 2131.31,733 732.36,-665.96 432.91,-1931.47 -566.35,-2164.52 632.76,-7892.5 7226.55,-13953.13 15118.41,-13953.13 7891.85,0 14485.64,6060.63 15118.4,13953.13 -999.26,266.25 -1298.71,1498.56 -533.15,2164.52 766.19,699.15 1964.66,266.25 2131.32,-733 h 8058.5 c 100.25,566.35 566.35,1032.45 1165.9,1065.65 665.95,8092.35 7425.75,14285.79 15517.47,14285.79 8125.55,0 14852.14,-6193.44 15518.09,-14285.79 599.57,-33.2 1098.87,-466.1 1198.47,-1065.65 h 8059.14 c 166.02,999.25 1365.13,1432.15 2130.69,733 732.99,-665.96 432.89,-1898.27 -532.51,-2164.52 632.75,-7892.5 7192.7,-13953.13 15118.4,-13953.13 7891.86,0 14485.64,6060.63 15118.39,13953.13 -999.25,233.05 -1298.7,1498.56 -566.34,2164.52 765.56,699.15 1964.67,266.25 2131.31,-733 H 231732 c 66.39,599.55 566.34,1032.45 1165.25,1065.65 666.59,8092.35 7426.41,14319 15518.11,14319 8125.54,0 14852.14,-6226.65 15518.11,-14319 598.91,-33.2 1065.65,-466.1 1165.25,-1065.65 h 7026.68 c 199.22,1865.05 2497.2,2597.41 3729.5,1232.3 1231.66,-1398.31 266.26,-3596.67 -1598.8,-3596.67 z" /></g><g
             id="g38"><g
               id="g40"><path
                 id="path42"
                 style="fill:#3044ff;fill-opacity:1;fill-rule:evenodd;stroke:none"
                 d="m 124006.19,96564.16 c -6992.85,0 -12653.79,5660.93 -12653.79,12653.79 0,6993.49 5660.94,12654.43 12653.79,12654.43 6992.85,0 12653.79,-5660.94 12653.79,-12654.43 0,-6992.86 -5660.94,-12653.79 -12653.79,-12653.79 z" /></g></g><g
             id="g44"><g
               id="g46"><path
                 id="path48"
                 style="fill:#3044ff;fill-opacity:1;fill-rule:evenodd;stroke:none"
                 d="m 124006.16,94499.92 -2397.56,2297.32 h 4795.12 z" /></g></g><g
             id="g50"><g
               id="g52"><path
                 id="path54"
                 style="fill:#3044ff;fill-opacity:1;fill-rule:evenodd;stroke:none"
                 d="m 124006.18,67892.96 c -1432.16,0 -2597.42,1165.27 -2597.42,2597.42 0,1432.16 1165.26,2597.425 2597.42,2597.425 1432.16,0 2597.41,-1165.265 2597.41,-2597.425 0,-1432.15 -1165.25,-2597.42 -2597.41,-2597.42 z" /></g></g><g
             id="g56"><g
               id="g58"><path
                 id="path60"
                 style="fill:#3044ff;fill-opacity:1;fill-rule:evenodd;stroke:none"
                 d="m 124006.16,69025.04 c -799.41,0 -1465.36,665.95 -1465.36,1465.36 0,799.405 665.95,1465.36 1465.36,1465.36 799.4,0 1465.36,-665.955 1465.36,-1465.36 0,-799.41 -665.96,-1465.36 -1465.36,-1465.36 z" /></g></g><g
             id="g62"><g
               id="g64"><g
                 id="g66"><path
                   id="path68"
                   style="fill:#000000;fill-opacity:0;fill-rule:evenodd;stroke:none"
                   d="M 124006.16,97396.8 V 72688.12" /></g></g><path
               id="path70"
               style="fill:none;stroke:#3044ff;stroke-width:991;stroke-linecap:round;stroke-linejoin:miter;stroke-miterlimit:52.15299988;stroke-dasharray:none;stroke-opacity:1"
               d="M 124006.16,97396.8 V 72688.12" /></g><g
             id="g72"><g
               id="g74"><path
                 id="path76"
                 style="fill:#000000;fill-opacity:1;fill-rule:evenodd;stroke:none"
                 d="m 124006.16,99994.2 c -5095.22,0 -9224.4,4129.18 -9224.4,9223.76 0,5062.02 4129.18,9191.2 9224.4,9191.2 5094.59,0 9190.56,-4129.18 9190.56,-9191.2 0,-5094.58 -4095.97,-9223.76 -9190.56,-9223.76 z" /></g></g><g
             id="g78"><g
               id="g80"><path
                 id="path82"
                 style="fill:#052643;fill-opacity:1;fill-rule:evenodd;stroke:none"
                 d="m 124006.16,99994.2 c -5095.22,0 -9224.4,4129.18 -9224.4,9223.76 0,5062.02 4129.18,9191.2 9224.4,9191.2 5094.59,0 9190.56,-4129.18 9190.56,-9191.2 0,-5094.58 -4095.97,-9223.76 -9190.56,-9223.76 z" /></g></g><g
             id="g84"><g
               id="g86"><path
                 id="path88"
                 style="fill:#3044ff;fill-opacity:1;fill-rule:evenodd;stroke:none"
                 d="m 124986.93,104518.59 c 1422.58,0 2760.88,1241.25 2482.48,2934.55 -166.64,1065.66 -999.25,1898.26 -2031.07,2098.11 -152.6,24.91 -301.36,37.03 -446.31,37.03 -2163.87,0 -3408.31,-2676.59 -1785.24,-4299.66 525.48,-535.06 1160.79,-770.03 1780.14,-770.03 z m -614.24,-1161.43 c -100.25,0 -199.85,100.24 -199.85,199.85 v 199.85 c 0,67.04 -67.04,133.45 -133.45,166.65 -199.85,66.4 -399.7,133.44 -566.35,233.05 -40.86,14.05 -76.62,21.71 -109.18,21.71 -45.34,0 -84.92,-15.96 -123.88,-54.91 l -132.8,-133.45 c -33.2,-33.2 -83.64,-49.8 -133.45,-49.8 -49.8,0 -99.6,16.6 -132.81,49.8 l -899.64,899.01 c -66.4,67.04 -66.4,199.85 0,266.89 l 133.45,132.81 c 66.4,67.04 66.4,166.65 33.2,233.05 -99.61,199.85 -166.65,366.5 -233.05,566.35 -33.21,99.61 -99.61,133.45 -199.86,166.65 h -166.64 c -132.82,0 -199.86,66.41 -199.86,166.65 v 1264.87 c 0,100.25 67.04,199.85 199.86,199.85 h 166.64 c 100.25,0 166.65,67.05 199.86,133.45 66.4,199.85 133.44,399.7 233.05,565.71 33.2,67.04 33.2,166.65 -33.2,233.69 l -133.45,132.81 c -66.4,66.4 -66.4,199.85 0,266.25 l 899.64,899.65 c 33.21,33.21 74.71,49.81 120.68,49.81 45.34,0 95.78,-16.6 145.58,-49.81 l 132.8,-133.44 c 38.96,-38.96 89.4,-54.92 137.93,-54.92 34.47,0 67.68,7.67 95.13,21.71 166.65,99.61 366.5,166.65 566.35,233.06 66.41,33.2 133.45,99.6 133.45,199.85 v 199.85 c 0,99.6 99.6,166.01 199.85,166.01 h 1264.87 c 100.25,0 166.65,-66.41 166.65,-166.01 v -233.05 c 0,-100.25 67.04,-166.65 166.65,-199.85 199.84,-33.21 366.49,-133.45 566.34,-199.86 28.1,-28.09 61.94,-38.31 97.06,-38.31 47.89,0 97.05,19.16 136,38.31 l 132.81,166.65 c 33.2,33.21 83.64,49.81 133.45,49.81 49.8,0 99.6,-16.6 133.44,-49.81 l 899.01,-899.65 c 66.41,-66.4 66.41,-199.85 0,-266.25 l -133.45,-132.81 c -66.4,-67.04 -66.4,-166.65 -33.2,-233.69 99.61,-166.01 166.65,-365.86 233.06,-565.71 33.2,-66.4 99.6,-133.45 166.64,-133.45 h 199.86 c 99.6,0 199.85,-99.6 199.85,-199.85 v -1264.87 c 0,-100.24 -100.25,-166.65 -199.85,-166.65 h -199.86 c -67.04,-33.2 -166.64,-67.04 -166.64,-166.65 -66.41,-199.85 -133.45,-366.5 -233.06,-566.35 -66.41,-66.4 -33.2,-166.01 33.2,-233.05 l 133.45,-132.81 c 66.41,-67.04 66.41,-199.85 0,-266.89 l -899.01,-899.01 c -33.84,-33.2 -83.64,-49.8 -133.44,-49.8 -49.81,0 -100.25,16.6 -133.45,49.8 l -132.81,133.45 c -41.5,40.86 -95.13,69.59 -146.22,69.59 -31.28,0 -61.93,-10.85 -86.84,-36.39 -199.85,-99.61 -366.5,-166.65 -566.34,-233.05 -99.61,-33.2 -166.65,-99.61 -166.65,-166.65 v -199.85 c 0,-99.61 -66.4,-199.85 -166.65,-199.85 z" /></g></g><g
             id="g90"><g
               id="g92"><path
                 id="path94"
                 style="fill:#3044ff;fill-opacity:1;fill-rule:evenodd;stroke:none"
                 d="m 125005.44,104955.96 c -1865.06,0 -2831.12,2264.11 -1498.56,3596.02 427.79,428.43 952,618.7 1466,618.7 1086.73,0 2130.04,-851.12 2130.04,-2117.26 0,-1165.26 -932.21,-2097.46 -2097.48,-2097.46 z" /></g></g><g
             id="g96"><g
               id="g98"><path
                 id="path100"
                 style="fill:#3044ff;fill-opacity:1;fill-rule:evenodd;stroke:none"
                 d="m 121909.34,110717.16 c 1008.82,0 1973.6,885.61 1763.54,2097.48 -132.81,732.36 -732.36,1298.7 -1464.72,1432.16 -113.02,19.79 -222.84,29.36 -329.47,29.36 -1500.48,0 -2352.88,-1876.55 -1202.3,-3026.49 359.48,-369.69 800.04,-532.51 1232.95,-532.51 z m -434.18,-833.24 c -66.41,0 -132.81,67.04 -132.81,133.45 v 133.44 c 0,66.41 -33.84,99.61 -100.25,132.82 -132.8,33.2 -299.45,100.24 -432.9,166.64 -16.6,16.61 -41.5,24.9 -66.4,24.9 -24.91,0 -49.81,-8.29 -66.41,-24.9 l -100.24,-99.61 c -33.21,-16.6 -66.41,-25.53 -99.61,-25.53 -33.84,0 -67.04,8.93 -100.24,25.53 l -599.56,632.76 c -66.4,33.21 -66.4,132.81 0,199.21 l 67.05,67.04 c 33.2,66.41 33.2,132.81 0,166.65 -67.05,132.81 -100.25,266.26 -166.65,432.91 0,33.2 -66.41,99.6 -133.44,99.6 h -132.82 c -67.04,0 -133.44,33.2 -133.44,133.45 v 865.81 c 0,99.6 66.4,132.8 133.44,132.8 h 166.01 c 33.84,0 100.25,66.41 133.45,100.24 33.2,166.02 66.4,299.46 166.65,432.91 0,33.2 0,99.61 -33.2,166.01 l -100.25,100.25 c -66.4,33.2 -66.4,132.8 0,166.64 l 632.76,632.76 c 16.6,33.2 49.8,49.8 83.64,49.8 33.2,0 66.4,-16.6 83,-49.8 l 99.62,-100.25 c 33.83,-16.6 67.03,-24.9 95.77,-24.9 29.37,0 54.27,8.3 70.87,24.9 133.45,66.41 266.25,133.45 432.9,166.65 33.21,0 100.25,66.41 100.25,132.81 v 133.44 c 0,66.41 33.2,133.46 132.81,133.46 h 865.8 c 67.05,0 133.45,-67.05 133.45,-133.46 v -133.44 c 0,-66.4 33.2,-132.81 99.61,-132.81 166.64,-33.2 300.09,-100.24 432.9,-166.65 16.6,-16.6 42.14,-24.9 70.87,-24.9 29.37,0 62.58,8.3 95.78,24.9 l 100.24,100.25 c 16.6,33.2 49.81,49.8 83.01,49.8 33.2,0 66.4,-16.6 83,-49.8 l 632.76,-632.76 c 67.04,-33.84 67.04,-133.44 0,-166.64 l -99.61,-100.25 c -33.2,-66.4 -33.2,-132.81 -33.2,-166.01 66.4,-133.45 132.81,-266.89 166.01,-432.91 33.84,-67.04 100.24,-100.24 133.45,-100.24 h 133.44 c 99.6,0 132.81,-66.41 132.81,-132.8 v -899.65 c 0,-66.41 -33.21,-132.81 -132.81,-132.81 h -133.44 c -66.41,0 -99.61,-33.2 -133.45,-100.25 -33.2,-132.8 -99.61,-266.25 -166.01,-399.06 -33.84,-67.04 0,-133.44 33.2,-166.65 l 99.61,-100.24 c 33.2,-33.2 33.2,-132.8 0,-199.85 l -632.76,-598.92 c -33.2,-33.83 -66.41,-50.43 -99.6,-50.43 -33.2,0 -66.41,16.6 -100.25,50.43 l -66.4,99.61 c -33.2,16.61 -66.41,24.9 -95.78,24.9 -28.73,0 -54.27,-8.29 -70.87,-24.9 -132.81,-66.4 -299.46,-133.44 -432.9,-166.64 -66.41,-33.21 -99.61,-66.41 -99.61,-132.82 v -133.44 c 0,-66.41 -66.4,-133.45 -133.45,-133.45 z" /></g></g><g
             id="g102"><g
               id="g104"><path
                 id="path106"
                 style="fill:#3044ff;fill-opacity:1;fill-rule:evenodd;stroke:none"
                 d="m 121908.06,111049.84 c -1298.71,0 -1931.46,1564.97 -1032.46,2463.99 302.65,302.65 672.34,436.73 1033.1,436.73 750.86,0 1464.71,-581.04 1464.71,-1435.35 0,-832.61 -665.96,-1465.37 -1465.35,-1465.37 z" /></g></g><g
             id="g108"><g
               id="g110"><path
                 id="path112"
                 style="fill:#3044ff;fill-opacity:1;fill-rule:evenodd;stroke:none"
                 d="m 206956.9,67892.96 c -1465.35,0 -2630.62,1165.27 -2630.62,2597.42 0,1432.16 1165.27,2597.425 2630.62,2597.425 1431.52,0 2597.43,-1165.265 2597.43,-2597.425 0,-1432.15 -1165.91,-2597.42 -2597.43,-2597.42 z" /></g></g><g
             id="g114"><g
               id="g116"><path
                 id="path118"
                 style="fill:#3044ff;fill-opacity:1;fill-rule:evenodd;stroke:none"
                 d="m 206956.92,96564.16 c -6993.5,0 -12687.64,5660.93 -12687.64,12653.79 0,6993.49 5694.14,12654.43 12687.64,12654.43 6959.64,0 12653.78,-5660.94 12653.78,-12654.43 0,-6992.86 -5694.14,-12653.79 -12653.78,-12653.79 z" /></g></g><g
             id="g120"><g
               id="g122"><path
                 id="path124"
                 style="fill:#3044ff;fill-opacity:1;fill-rule:evenodd;stroke:none"
                 d="m 206956.89,94499.92 -2430.77,2297.32 h 4828.32 z" /></g></g><g
             id="g126"><g
               id="g128"><g
                 id="g130"><path
                   id="path132"
                   style="fill:#000000;fill-opacity:0;fill-rule:evenodd;stroke:none"
                   d="M 206956.92,98095.96 V 70490.4" /></g></g><path
               id="path134"
               style="fill:none;stroke:#3044ff;stroke-width:991;stroke-linecap:round;stroke-linejoin:miter;stroke-miterlimit:52.15299988;stroke-dasharray:none;stroke-opacity:1"
               d="M 206956.92,98095.96 V 70490.4" /></g><g
             id="g136"><g
               id="g138"><path
                 id="path140"
                 style="fill:#3044ff;fill-opacity:1;fill-rule:evenodd;stroke:none"
                 d="m 206923.72,69025.04 c -799.41,0 -1432.16,632.76 -1432.16,1432.155 0,798.765 632.75,1465.365 1432.16,1465.365 798.76,0 1464.72,-666.6 1464.72,-1465.365 0,-799.395 -665.96,-1432.155 -1464.72,-1432.155 z" /></g></g><g
             id="g142"><g
               id="g144"><path
                 id="path146"
                 style="fill:#000000;fill-opacity:1;fill-rule:evenodd;stroke:none"
                 d="m 206956.89,99994.2 c -5095.23,0 -9224.41,4129.18 -9224.41,9223.76 0,5062.02 4129.18,9191.2 9224.41,9191.2 5061.38,0 9190.56,-4129.18 9190.56,-9191.2 0,-5094.58 -4129.18,-9223.76 -9190.56,-9223.76 z" /></g></g><g
             id="g148"><g
               id="g150"><path
                 id="path152"
                 style="fill:#052643;fill-opacity:1;fill-rule:evenodd;stroke:none"
                 d="m 206956.89,99994.2 c -5095.23,0 -9224.41,4129.18 -9224.41,9223.77 0,5062.03 4129.18,9191.21 9224.41,9191.21 5061.39,0 9190.58,-4129.18 9190.58,-9191.21 0,-5094.59 -4129.19,-9223.77 -9190.58,-9223.77 z" /></g></g><g
             id="g154"><g
               id="g156"><path
                 id="path158"
                 style="fill:#3044ff;fill-opacity:1;fill-rule:evenodd;stroke:none"
                 d="m 165464.62,145315.56 c -1431.51,0 -2597.42,1165.27 -2597.42,2597.42 0,1464.72 1165.91,2630.63 2597.42,2630.63 1432.16,0 2597.43,-1165.91 2597.43,-2630.63 0,-1432.15 -1165.27,-2597.42 -2597.43,-2597.42 z" /></g></g><g
             id="g160"><g
               id="g162"><path
                 id="path164"
                 style="fill:#3044ff;fill-opacity:1;fill-rule:evenodd;stroke:none"
                 d="m 165464.64,96564.16 c -6992.86,0 -12653.8,5660.93 -12653.8,12653.79 0,6993.49 5660.94,12654.43 12653.8,12654.43 6993.48,0 12654.42,-5660.94 12654.42,-12654.43 0,-6992.86 -5660.94,-12653.79 -12654.42,-12653.79 z" /></g></g><g
             id="g166"><g
               id="g168"><path
                 id="path170"
                 style="fill:#3044ff;fill-opacity:1;fill-rule:evenodd;stroke:none"
                 d="m 163000.64,121605.52 2397.56,2297.96 2397.57,-2297.96 z" /></g></g><g
             id="g172"><g
               id="g174"><g
                 id="g176"><path
                   id="path178"
                   style="fill:#000000;fill-opacity:0;fill-rule:evenodd;stroke:none"
                   d="M 165464.6,147913 V 117809.64" /></g></g><path
               id="path180"
               style="fill:none;stroke:#3044ff;stroke-width:991;stroke-linecap:butt;stroke-linejoin:miter;stroke-miterlimit:52.15299988;stroke-dasharray:none;stroke-opacity:1"
               d="M 165464.6,147913 V 117809.64" /></g><g
             id="g182"><g
               id="g184"><path
                 id="path186"
                 style="fill:#3044ff;fill-opacity:1;fill-rule:evenodd;stroke:none"
                 d="m 165464.64,146480.84 c -798.76,0 -1431.52,632.76 -1431.52,1432.16 0,798.77 632.76,1464.72 1431.52,1464.72 799.41,0 1465.36,-665.95 1465.36,-1464.72 0,-799.4 -665.95,-1432.16 -1465.36,-1432.16 z" /></g></g><g
             id="g188"><g
               id="g190"><path
                 id="path192"
                 style="fill:#000000;fill-opacity:1;fill-rule:evenodd;stroke:none"
                 d="m 165464.61,99994.2 c -5061.39,0 -9190.56,4129.18 -9190.56,9223.76 0,5062.02 4129.17,9191.2 9190.56,9191.2 5095.22,0 9224.39,-4129.18 9224.39,-9191.2 0,-5094.58 -4129.17,-9223.76 -9224.39,-9223.76 z" /></g></g><g
             id="g194"><g
               id="g196"><path
                 id="path198"
                 style="fill:#052643;fill-opacity:1;fill-rule:evenodd;stroke:none"
                 d="m 165464.61,99994.2 c -5061.39,0 -9190.56,4129.18 -9190.56,9223.76 0,5062.02 4129.17,9191.2 9190.56,9191.2 5095.22,0 9224.39,-4129.18 9224.39,-9191.2 0,-5094.58 -4129.17,-9223.76 -9224.39,-9223.76 z" /></g></g><g
             id="g200"><g
               id="g202"><path
                 id="path204"
                 style="fill:#3044ff;fill-opacity:1;fill-rule:evenodd;stroke:none"
                 d="m 248415.34,145315.56 c -1465.36,0 -2630.62,1165.27 -2630.62,2597.42 0,1464.72 1165.26,2630.63 2630.62,2630.63 1432.16,0 2597.43,-1165.91 2597.43,-2630.63 0,-1432.15 -1165.27,-2597.42 -2597.43,-2597.42 z" /></g></g><g
             id="g206"><g
               id="g208"><path
                 id="path210"
                 style="fill:#3044ff;fill-opacity:1;fill-rule:evenodd;stroke:none"
                 d="m 248415.36,96564.16 c -6992.86,0 -12687,5660.94 -12687,12653.79 0,6993.5 5694.14,12654.45 12687,12654.45 6992.86,0 12653.8,-5660.95 12653.8,-12654.45 0,-6992.85 -5660.94,-12653.79 -12653.8,-12653.79 z" /></g></g><g
             id="g212"><g
               id="g214"><path
                 id="path216"
                 style="fill:#3044ff;fill-opacity:1;fill-rule:evenodd;stroke:none"
                 d="m 245951.36,121605.52 2397.56,2297.96 2397.56,-2297.96 z" /></g></g><g
             id="g218"><g
               id="g220"><g
                 id="g222"><path
                   id="path224"
                   style="fill:#000000;fill-opacity:0;fill-rule:evenodd;stroke:none"
                   d="M 248415.36,147913 V 114280" /></g></g><path
               id="path226"
               style="fill:none;stroke:#3044ff;stroke-width:991;stroke-linecap:round;stroke-linejoin:miter;stroke-miterlimit:52.15299988;stroke-dasharray:none;stroke-opacity:1"
               d="M 248415.36,147913 V 114280" /></g><g
             id="g228"><g
               id="g230"><path
                 id="path232"
                 style="fill:#3044ff;fill-opacity:1;fill-rule:evenodd;stroke:none"
                 d="m 248382.16,146447.64 c -799.41,0 -1432.16,632.75 -1432.16,1432.16 0,831.97 632.75,1464.72 1432.16,1464.72 832.61,0 1465.36,-632.75 1465.36,-1464.72 0,-799.41 -632.75,-1432.16 -1465.36,-1432.16 z" /></g></g><g
             id="g234"><g
               id="g236"><path
                 id="path238"
                 style="fill:#000000;fill-opacity:1;fill-rule:evenodd;stroke:none"
                 d="m 248415.33,99994.2 c -5094.6,0 -9223.77,4129.18 -9223.77,9223.76 0,5062.02 4129.17,9191.2 9223.77,9191.2 5061.37,0 9190.56,-4129.18 9190.56,-9191.2 0,-5094.58 -4129.19,-9223.76 -9190.56,-9223.76 z" /></g></g><g
             id="g240"><g
               id="g242"><path
                 id="path244"
                 style="fill:#052643;fill-opacity:1;fill-rule:evenodd;stroke:none"
                 d="m 248415.33,99994.2 c -5094.6,0 -9223.77,4129.18 -9223.77,9223.76 0,5062.02 4129.17,9191.2 9223.77,9191.2 5061.37,0 9190.56,-4129.18 9190.56,-9191.2 0,-5094.58 -4129.19,-9223.76 -9190.56,-9223.76 z" /></g></g><g
             id="g246"><g
               id="g248"><g
                 id="g250"><path
                   id="path252"
                   style="fill:#000000;fill-opacity:0;fill-rule:evenodd;stroke:none"
                   d="m 107364,40710 h 35424 v 7848 h -35424 z" /></g></g></g><g
             transform="scale(381)"
             id="g254"><g
               transform="translate(281.7953,106.85039)"
               id="g256"><g
                 id="g258"><text
                   id="text262"
                   style="font-variant:normal;font-weight:900;font-size:16px;font-family:Roboto;-inkscape-font-specification:Roboto-Black;writing-mode:lr-tb;fill:#000000;fill-opacity:1;fill-rule:nonzero;stroke:none"
                   transform="translate(12.050686,24.36)"><tspan
                     id="tspan260"
                     y="0"
                     x="0 10 18.944 27.6 36.543999 47.040001 57.776001">SELEÇÃO</tspan></text>
</g></g></g><g
             transform="scale(381)"
             id="g264" /><g
             id="g266"><g
               id="g268"><g
                 id="g270"><path
                   id="path272"
                   style="fill:#000000;fill-opacity:0;fill-rule:evenodd;stroke:none"
                   d="m 35002.52,111405.08 h 74376 v 16356 h -74376 z" /></g></g></g><g
             transform="scale(381)"
             id="g274"><g
               transform="translate(91.87013,292.4018)"
               id="g276"><g
                 id="g278"><text
                   id="text282"
                   style="font-variant:normal;font-weight:300;font-size:13.33333302px;font-family:Roboto;-inkscape-font-specification:Roboto-Light;writing-mode:lr-tb;fill:#000000;fill-opacity:1;fill-rule:nonzero;stroke:none"
                   transform="translate(22.108398,21.8)"><tspan
                     id="tspan280"
                     y="0"
                     x="0 4.2399998 11.626666 19.013332 24.293333 31.679998 39.066666 44.346664 51.733334 59.119999 66.506668 73.893333 77.133331 80.946663 84.186661 90.666664 97.146667 102.42667 108.90666 115.38667 120.66666 127.14666 133.62666 140.10666 146.58667">(20/08/2021 - xx/xx/xxxx)</tspan></text>
</g></g></g><g
             transform="scale(381)"
             id="g284" /><g
             id="g286"><g
               id="g288"><path
                 id="path290"
                 style="fill:#3044ff;fill-opacity:1;fill-rule:evenodd;stroke:none"
                 d="m 203442.86,111366.73 c -534.09,0 -965.02,459.15 -965.02,1030.71 v 749.55 c 0,149.91 121.71,281.01 262.35,281.01 h 1124.33 c -28.22,-84.36 -46.88,-177.98 -46.88,-281.01 v -1780.26 z" /></g></g><g
             id="g292"><g
               id="g294"><path
                 id="path296"
                 style="fill:#3044ff;fill-opacity:1;fill-rule:evenodd;stroke:none"
                 d="m 205297.92,109877.04 c -524.69,0 -955.59,459.14 -955.59,1030.56 v 2239.39 c 0,149.91 112.42,281.01 252.94,281.01 h 1124.31 c -18.66,-84.36 -46.88,-177.98 -46.88,-281.01 v -3269.95 z" /></g></g><g
             id="g298"><g
               id="g300"><path
                 id="path302"
                 style="fill:#3044ff;fill-opacity:1;fill-rule:evenodd;stroke:none"
                 d="m 209223.8,103908.72 c -84.36,0 -159.32,46.88 -206.19,112.43 l -1864.47,2679.71 c -56.3,84.22 -74.97,206.05 -28.08,299.82 46.74,93.63 131.1,149.91 234.13,149.91 h 674.59 v 5996.4 c 0,149.91 112.44,281.01 253.08,281.01 h 1864.47 c 140.51,0 252.94,-131.1 252.94,-281.01 v -5996.4 h 665.18 c 93.77,0 196.8,-56.28 234.28,-149.91 65.55,-93.77 56.29,-215.6 -9.4,-299.82 l -1855.06,-2679.71 c -46.89,-65.55 -131.25,-112.43 -215.47,-112.43 z" /></g></g><g
             id="g304"><g
               id="g306"><path
                 id="path308"
                 style="fill:#3044ff;fill-opacity:1;fill-rule:evenodd;stroke:none"
                 d="m 207153.14,108377.94 c -524.69,0 -965.02,459.14 -965.02,1030.56 v 3738.49 c 0,149.91 121.69,281.01 262.35,281.01 h 1124.33 c -28.22,-84.36 -46.9,-177.98 -46.9,-281.01 v -4769.05 z" /></g></g><g
             id="g310"><g
               id="g312"><path
                 id="path314"
                 style="fill:#3044ff;fill-opacity:1;fill-rule:evenodd;stroke:none"
                 d="m 248374.11,105700.78 c 1075.14,0 1950.56,875.42 1950.56,1950.56 0,1075.14 -875.42,1942.97 -1950.56,1942.97 -1075.14,0 -1950.67,-867.83 -1950.67,-1942.97 0,-1082.86 875.53,-1950.56 1950.67,-1950.56 z m -785.83,-1344.02 c -167.48,0 -310.09,96.01 -427.59,291.88 -184.31,307.19 -453.08,460.78 -806.39,460.78 -353.2,0 -537.52,184.31 -537.52,537.52 -7.7,361.02 -161.3,629.78 -460.76,806.38 -307.19,184.31 -376.33,422.35 -199.74,744.95 169.02,307.19 169.02,622.08 0,929.26 -176.59,307.19 -107.45,552.94 199.74,737.24 307.17,184.32 460.76,453.07 460.76,806.28 7.72,361.03 184.32,537.63 537.52,537.63 353.31,0 622.08,168.89 806.39,460.77 118.89,198.21 263.37,297.26 433.43,297.26 93.57,0 194.83,-30.01 303.8,-89.94 153.6,-88.29 311.03,-132.44 468.48,-132.44 157.46,0 314.9,44.15 468.49,132.44 109.21,57.36 210.59,86.56 304.27,86.56 169.82,0 314.18,-95.9 432.96,-293.88 184.32,-307.18 453.08,-460.77 806.28,-460.77 353.32,0 537.63,-176.6 537.63,-537.63 7.7,-353.21 161.3,-621.96 460.77,-806.28 307.18,-184.3 376.32,-430.05 199.6,-737.24 -168.88,-307.18 -168.88,-622.07 0,-929.26 176.72,-307.18 107.58,-560.64 -199.6,-744.95 -307.18,-176.6 -460.77,-445.36 -460.77,-806.38 -7.72,-353.21 -184.31,-537.52 -537.63,-537.52 -353.2,-7.71 -621.96,-161.3 -806.28,-460.78 -117.6,-195.87 -260.1,-291.88 -427.59,-291.88 -95.2,0 -198.45,30.95 -309.64,92.15 -153.59,88.43 -311.03,132.57 -468.49,132.57 -157.45,0 -314.88,-44.14 -468.48,-132.57 -111.31,-61.2 -214.56,-92.15 -309.64,-92.15 z" /></g></g><g
             id="g316"><g
               id="g318"><path
                 id="path320"
                 style="fill:#3044ff;fill-opacity:1;fill-rule:evenodd;stroke:none"
                 d="m 245908.94,110316.13 -1459.17,2872.24 v 0 l 1167.29,-138.29 645.08,982.98 c 0,0 1337.13,-2780.42 1351.48,-2795.37 v 0 c 0.13,0 0.13,0 0.13,0 0,0 0,0 0,0 0,0 0,0 -0.13,0 v 0 c -698.68,-15.42 -422.22,-729.53 -1282.34,-744.84 -376.33,0 -422.34,-176.72 -422.34,-176.72 z" /></g></g><g
             id="g322"><g
               id="g324"><path
                 id="path326"
                 style="fill:#3044ff;fill-opacity:1;fill-rule:evenodd;stroke:none"
                 d="m 250808.45,110423.71 c -1059.72,115.17 -852.4,376.33 -1090.43,583.65 -201.49,212.34 -437.77,243.3 -558.19,243.3 -49.3,0 -79.19,-5.26 -79.19,-5.26 v 0 l 1651.08,2833.8 407.05,-1044.43 1151.87,153.6 z" /></g></g><g
             id="g328"><g
               id="g330"><path
                 id="path332"
                 style="fill:#3044ff;fill-opacity:1;fill-rule:evenodd;stroke:none"
                 d="m 248374.11,106399.59 -414.75,829.4 -913.84,130.59 668.09,645.08 -153.59,898.43 814.09,-422.35 813.99,422.35 -153.6,-898.43 652.8,-645.08 -913.85,-130.59 z" /></g></g><g
             id="g334"><g
               id="g336"><path
                 id="path338"
                 style="fill:#3044ff;fill-opacity:1;fill-rule:evenodd;stroke:none"
                 d="m 165472.89,104674.44 c -1450.39,0 -1706.34,986.5 -1706.34,2207.54 0,1226.48 762.5,2218.25 1706.34,2218.25 938.5,0 1695.64,-991.77 1695.64,-2212.89 0,-1226.4 -250.59,-2212.9 -1695.64,-2212.9 z" /></g></g><g
             id="g340"><g
               id="g342"><path
                 id="path344"
                 style="fill:#3044ff;fill-opacity:1;fill-rule:evenodd;stroke:none"
                 d="m 164529.05,109265.59 c -1962.3,383.93 -2239.58,981.15 -2276.88,3055.37 0,129.67 -3.33,167.47 -4.7,167.47 -0.41,0 -0.66,-2.92 -0.66,-7.46 v 223.91 c 0,0 469.25,1023.81 3210.11,1023.81 2740.77,0 3215.38,-1023.81 3215.38,-1023.81 v -165.28 c 1.78,2.68 3.23,4.14 4.45,4.14 6,0 5.27,-37.06 0.89,-148.09 -32.03,-2132.93 -293.34,-2740.85 -2282.24,-3130.06 0,0 -277.28,383.93 -933.21,383.93 -650.5,0 -933.14,-383.93 -933.14,-383.93 z" /></g></g><g
             id="g346"><g
               id="g348"><g
                 id="g350"><path
                   id="path352"
                   style="fill:#000000;fill-opacity:0;fill-rule:evenodd;stroke:none"
                   d="m 49831.48,102230 h 44712 v 7848 h -44712 z" /></g></g></g><g
             transform="scale(381)"
             id="g354"><g
               transform="translate(130.79129,268.32022)"
               id="g356"><g
                 id="g358"><text
                   id="text362"
                   style="font-variant:normal;font-weight:900;font-size:16px;font-family:Roboto;-inkscape-font-specification:Roboto-Black;writing-mode:lr-tb;fill:#000000;fill-opacity:1;fill-rule:nonzero;stroke:none"
                   transform="translate(16.614662,24.36)"><tspan
                     id="tspan360"
                     y="0"
                     x="0 4.816 16.048 26.048 36.543999 46.976002 51.792 62.287998 73.024002">INSCRIÇÃO</tspan></text>
</g></g></g><g
             transform="scale(381)"
             id="g364" /><g
             id="g366"><g
               id="g368"><g
                 id="g370"><path
                   id="path372"
                   style="fill:#000000;fill-opacity:0;fill-rule:evenodd;stroke:none"
                   d="m 166067.08,25664 h 86328 v 16356 h -86328 z" /></g></g></g><g
             transform="scale(381)"
             id="g374"><g
               transform="translate(435.87158,67.35958)"
               id="g376"><g
                 id="g378"><text
                   id="text382"
                   style="font-variant:normal;font-weight:300;font-size:13.33333302px;font-family:Roboto;-inkscape-font-specification:Roboto-Light;writing-mode:lr-tb;fill:#000000;fill-opacity:1;fill-rule:nonzero;stroke:none"
                   transform="translate(13.268562,21.8)"><tspan
                     id="tspan380"
                     y="0"
                     x="0 8.2533331 15.719999 18.959999 21.946667 29.413332 36.733334 44.119999 51.586666 54.826664 62.226665 69.106667 72.346664 79.73333 82.973328 94.786667 101.66666 108.41333 115.29333 122.03999 125.28 132.74666 135.98666 143.12 146.10666 153.42667 160.74666 168.21333 174.95999 178.2 181.18666 185.41333 192.54666 200.01332">Ao longo de 3 meses o alunos irão </tspan></text>
<text
                   id="text386"
                   style="font-variant:normal;font-weight:300;font-size:13.33333302px;font-family:Roboto;-inkscape-font-specification:Roboto-Light;writing-mode:lr-tb;fill:#000000;fill-opacity:1;fill-rule:nonzero;stroke:none"
                   transform="translate(12.923622,40.199997)"><tspan
                     id="tspan384"
                     y="0"
                     x="0 7.3999996 14.28 21.026667 27.906666 35.226665 41.533333 49 51.986664 58.306664 65.186668 69.666664 72.906662 80.373329 87.119995 90.360001 97.759995 104.64 111.38667 118.52 125.68 133.14667 139.89333 143.13333 150 157.46666 169.28 172.51999 179.90666 187.03999 193.78667 200.66666">desenvolver os desaﬁos com base </tspan></text>
<text
                   id="text390"
                   style="font-variant:normal;font-weight:300;font-size:13.33333302px;font-family:Roboto;-inkscape-font-specification:Roboto-Light;writing-mode:lr-tb;fill:#000000;fill-opacity:1;fill-rule:nonzero;stroke:none"
                   transform="translate(27.374321,58.599995)"><tspan
                     id="tspan388"
                     y="0"
                     x="0 7.3199997 14.453333 21.199999 24.439999 31.32 38.066666 45.453331 52.333332 59.199997 62.186665 69.346664 76.213333 83.346664 90.213333 97.68 104.56 111.30666 114.48 117.71999 126.17333 133.05333 140.37334 147.69333 150.67999 158.14667 165.02666 171.77333">nas especiﬁcações. Reuniões </tspan></text>
<text
                   id="text394"
                   style="font-variant:normal;font-weight:300;font-size:13.33333302px;font-family:Roboto;-inkscape-font-specification:Roboto-Light;writing-mode:lr-tb;fill:#000000;fill-opacity:1;fill-rule:nonzero;stroke:none"
                   transform="translate(28.46447,77)"><tspan
                     id="tspan392"
                     y="0"
                     x="0 6.7466664 13.626666 25.439999 32.573334 39.893333 47.026665 50.013332 56.759998 60 66.866669 74.333328 86.146667 89.386665 97.586662 101.94666 109.41333 113.68 120.56 127.30666 134.05333 141.51999 145.87999 152.75999 159.50667 162.74666 169.62666">semanais com Professores e </tspan></text>
<text
                   id="text398"
                   style="font-variant:normal;font-weight:300;font-size:13.33333302px;font-family:Roboto;-inkscape-font-specification:Roboto-Light;writing-mode:lr-tb;fill:#000000;fill-opacity:1;fill-rule:nonzero;stroke:none"
                   transform="translate(71.52384,95.399994)"><tspan
                     id="tspan396"
                     y="0"
                     x="0 6.8666663 14.333333 17.32 24.453333 31.84 39.306667 43.533333 50.666664 58.066666 65.533333 69.893333 76.773331">colaboradores</tspan></text>
</g></g></g><g
             transform="scale(381)"
             id="g400" /><g
             id="g402"><g
               id="g404"><g
                 id="g406"><path
                   id="path408"
                   style="fill:#000000;fill-opacity:0;fill-rule:evenodd;stroke:none"
                   d="m 139597.52,148984 h 51768 v 7848 h -51768 z" /></g></g></g><g
             transform="scale(381)"
             id="g410"><g
               transform="translate(366.39767,391.03412)"
               id="g412"><g
                 id="g414"><text
                   id="text418"
                   style="font-variant:normal;font-weight:900;font-size:16px;font-family:Roboto;-inkscape-font-specification:Roboto-Black;writing-mode:lr-tb;fill:#000000;fill-opacity:1;fill-rule:nonzero;stroke:none"
                   transform="translate(26.80029,24.36)"><tspan
                     id="tspan416"
                     y="0"
                     x="0 10.896 21.216 30.16 40.208 50.287998 60.911999 71.344002">ABERTURA</tspan></text>
</g></g></g><g
             transform="scale(381)"
             id="g420" /><g
             id="g422"><g
               id="g424"><g
                 id="g426"><path
                   id="path428"
                   style="fill:#000000;fill-opacity:0;fill-rule:evenodd;stroke:none"
                   d="m 182880,17899 h 51768 v 7848 h -51768 z" /></g></g></g><g
             transform="scale(381)"
             id="g430"><g
               transform="translate(480,46.979004)"
               id="g432"><g
                 id="g434"><text
                   id="text438"
                   style="font-variant:normal;font-weight:900;font-size:16px;font-family:Roboto;-inkscape-font-specification:Roboto-Black;writing-mode:lr-tb;fill:#000000;fill-opacity:1;fill-rule:nonzero;stroke:none"
                   transform="translate(17.304195,24.36)"><tspan
                     id="tspan436"
                     y="0"
                     x="0 10.736 21.232 30.176001 38.832001 47.776001 58.208 68.944 79.440002 90.176003">ACELERAÇÃO</tspan></text>
</g></g></g><g
             transform="scale(381)"
             id="g440" /><g
             id="g442"><g
               id="g444"><g
                 id="g446"><path
                   id="path448"
                   style="fill:#000000;fill-opacity:0;fill-rule:evenodd;stroke:none"
                   d="m 222531.52,149482.52 h 51768.01 v 7848 h -51768.01 z" /></g></g></g><g
             transform="scale(381)"
             id="g450"><g
               transform="translate(584.0722,392.34256)"
               id="g452"><g
                 id="g454"><text
                   id="text458"
                   style="font-variant:normal;font-weight:900;font-size:16px;font-family:Roboto;-inkscape-font-specification:Roboto-Black;writing-mode:lr-tb;fill:#000000;fill-opacity:1;fill-rule:nonzero;stroke:none"
                   transform="translate(30.776852,24.36)"><tspan
                     id="tspan456"
                     y="0"
                     x="0 10.336 19.280001 33.296001 44.335999 54.512001 64.239998">DEMODAY</tspan></text>
</g></g></g><g
             transform="scale(381)"
             id="g460" /><g
             id="g462"><g
               id="g464"><g
                 id="g466"><path
                   id="path468"
                   style="fill:#000000;fill-opacity:0;fill-rule:evenodd;stroke:none"
                   d="m 277602,99182 h 61644 v 7848 h -61644 z" /></g></g></g><g
             transform="scale(381)"
             id="g470"><g
               transform="translate(728.6142,260.32022)"
               id="g472"><g
                 id="g474"><text
                   id="text478"
                   style="font-variant:normal;font-weight:900;font-size:16px;font-family:Roboto;-inkscape-font-specification:Roboto-Black;writing-mode:lr-tb;fill:#000000;fill-opacity:1;fill-rule:nonzero;stroke:none"
                   transform="translate(23.296074,24.36)"><tspan
                     id="tspan476"
                     y="0"
                     x="0 10.496 21.535999 32.543999 42.624001 53.056 63.023998 72.176003 82.912003 93.407997 104.144">CONTRATAÇÃO</tspan></text>
</g></g></g><g
             transform="scale(381)"
             id="g480" /><g
             id="g482"><g
               id="g484"><g
                 id="g486"><path
                   id="path488"
                   style="fill:#000000;fill-opacity:0;fill-rule:evenodd;stroke:none"
                   d="m 86818.52,50047.52 h 74376 v 16355.996 h -74376 z" /></g></g></g><g
             transform="scale(381)"
             id="g490"><g
               transform="translate(227.87015,131.35832)"
               id="g492"><g
                 id="g494"><text
                   id="text498"
                   style="font-variant:normal;font-weight:300;font-size:13.33333302px;font-family:Roboto;-inkscape-font-specification:Roboto-Light;writing-mode:lr-tb;fill:#000000;fill-opacity:1;fill-rule:nonzero;stroke:none"
                   transform="translate(25.534874,21.8)"><tspan
                     id="tspan496"
                     y="0"
                     x="0 8 14.306666 21.439999 24.426666 27.413332 34.546665 41.413334 48.546665 56.013332 59.25333 66.68 74 81.133331 84.119995 87.106667 91.386665 98.519997 102.8 105.78667 112.09333 119.22666 122.46667 129.86667 137.33333 144.08">Avaliação qualitativa dos </tspan></text>
<text
                   id="text502"
                   style="font-variant:normal;font-weight:300;font-size:13.33333302px;font-family:Roboto;-inkscape-font-specification:Roboto-Light;writing-mode:lr-tb;fill:#000000;fill-opacity:1;fill-rule:nonzero;stroke:none"
                   transform="translate(38.042923,40.199997)"><tspan
                     id="tspan500"
                     y="0"
                     x="0 7.1333332 10.12 17.439999 24.76 32.226665 38.973331 42.213333 48.959999 55.84 58.826664 65.706665 72.573334 75.559998 83.026665 90.346664 97.479996 104.88 112.34666">alunos selecionados</tspan></text>
</g></g></g><g
             transform="scale(381)"
             id="g504" /><g
             id="g506"><g
               id="g508"><g
                 id="g510"><path
                   id="path512"
                   style="fill:#000000;fill-opacity:0;fill-rule:evenodd;stroke:none"
                   d="m 205691.08,156728 h 86327.98 v 16356 h -86327.98 z" /></g></g></g><g
             transform="scale(381)"
             id="g514"><g
               transform="translate(539.8716,411.3596)"
               id="g516"><g
                 id="g518"><text
                   id="text522"
                   style="font-variant:normal;font-weight:300;font-size:13.33333302px;font-family:Roboto;-inkscape-font-specification:Roboto-Light;writing-mode:lr-tb;fill:#000000;fill-opacity:1;fill-rule:nonzero;stroke:none"
                   transform="translate(11.244583,21.8)"><tspan
                     id="tspan520"
                     y="0"
                     x="0 8.3199997 15.706666 20.066666 26.946667 33.693333 40.573334 47.893333 52.173332 59.306664 66.173332 73.306664 80.773331 84.013329 91.146667 98.533333 105.41333 110.21333 114.49333 121.62666 124.86666 132.25333 139.38666 143.61333 150.74666 153.98666 158.14667 165.61333 173.01334 180.14667 186.89333 190.13333 197.26666 204.01332">Apresentação aberta para todas as </tspan></text>
<text
                   id="text526"
                   style="font-variant:normal;font-weight:300;font-size:13.33333302px;font-family:Roboto;-inkscape-font-specification:Roboto-Light;writing-mode:lr-tb;fill:#000000;fill-opacity:1;fill-rule:nonzero;stroke:none"
                   transform="translate(35.52215,40.199997)"><tspan
                     id="tspan524"
                     y="0"
                     x="0 6.8799996 18.693333 26.08 30.439999 37.32 44.066666 51.199997 57.946667 61.186665 68.573334 75.706665 80.506668 84.786667 87.773331 94.639999 97.626663 105.01333 112.14667 119.46667 123.74667 130.62666 137.37334 140.61333 148.01334 155.48">empresas participantes do </tspan></text>
<text
                   id="text530"
                   style="font-variant:normal;font-weight:300;font-size:13.33333302px;font-family:Roboto;-inkscape-font-specification:Roboto-Light;writing-mode:lr-tb;fill:#000000;fill-opacity:1;fill-rule:nonzero;stroke:none"
                   transform="translate(42.651695,58.599995)"><tspan
                     id="tspan528"
                     y="0"
                     x="0 7.3866663 11.746666 19.213333 26.599998 30.826666 37.959999 49.773331 56.906666 60.146664 67.546661 74.426666 77.666664 84.799995 91.666664 98.546661 101.53333 108.41333 112.64 119.77333 126.64 133.77333">programa de aceleração</tspan></text>
</g></g></g><g
             transform="scale(381)"
             id="g532" /><g
             id="g534"><g
               id="g536"><g
                 id="g538"><path
                   id="path540"
                   style="fill:#000000;fill-opacity:0;fill-rule:evenodd;stroke:none"
                   d="m 266651.1,107960 h 86328 v 16356 h -86328 z" /></g></g></g><g
             transform="scale(381)"
             id="g542"><g
               transform="translate(699.87164,283.3596)"
               id="g544"><g
                 id="g546"><text
                   id="text550"
                   style="font-variant:normal;font-weight:300;font-size:13.33333302px;font-family:Roboto;-inkscape-font-specification:Roboto-Light;writing-mode:lr-tb;fill:#000000;fill-opacity:1;fill-rule:nonzero;stroke:none"
                   transform="translate(38.65902,21.8)"><tspan
                     id="tspan548"
                     y="0"
                     x="0 7.5733333 19.386665 22.626667 29.493332 36.626667 43.373333 50.84 54.079998 61.48 68.360001 71.599998 74.586662 81.906662 86.186661 93.066666 97.426666 104.30666 111.05333 117.8 124.68 127.92 135.31999 142.45332 149.2">Em caso de interesse das </tspan></text>
<text
                   id="text554"
                   style="font-variant:normal;font-weight:300;font-size:13.33333302px;font-family:Roboto;-inkscape-font-specification:Roboto-Light;writing-mode:lr-tb;fill:#000000;fill-opacity:1;fill-rule:nonzero;stroke:none"
                   transform="translate(38.554955,40.199997)"><tspan
                     id="tspan552"
                     y="0"
                     x="0 6.8799996 18.693333 26.08 30.439999 37.32 44.066666 51.199997 57.946667 61.186665 68.573334 75.706665 80.066666 86.933334 93.813332 96.799995 101.02666 108.16 114.90666 117.45333 120.69333 127.82666 135.21333 142.67999 149.42667">empresas parceiras, após </tspan></text>
<text
                   id="text558"
                   style="font-variant:normal;font-weight:300;font-size:13.33333302px;font-family:Roboto;-inkscape-font-specification:Roboto-Light;writing-mode:lr-tb;fill:#000000;fill-opacity:1;fill-rule:nonzero;stroke:none"
                   transform="translate(32.4116,58.599995)"><tspan
                     id="tspan556"
                     y="0"
                     x="0 3.04 10.36 13.346666 20.733334 27.866667 39.68 46.559998 53.879997 58.039997 65.506668 68.746666 76.066666 83.533333 86.773331 95.493332 102.37333 114.18666 121.65333 129.05333 136.09332 141.73334 144.28 147.51999 154.98666 161.73332">julgamento no Demoday, os </tspan></text>
<text
                   id="text562"
                   style="font-variant:normal;font-weight:300;font-size:13.33333302px;font-family:Roboto;-inkscape-font-specification:Roboto-Light;writing-mode:lr-tb;fill:#000000;fill-opacity:1;fill-rule:nonzero;stroke:none"
                   transform="translate(28.666214,77)"><tspan
                     id="tspan560"
                     y="0"
                     x="0 11.813334 18.693333 21.68 28.986666 36.453331 40.813332 47.693333 54.439999 57.68 64.813332 67.799995 75.119995 82.439995 89.906662 96.653328 99.893333 107.28 114.74667 122.14666 129.02666 133.25333 140.38666 147.85333 151.09332 157.84 164.72 169.2">melhores alunos poderão ser </tspan></text>
<text
                   id="text566"
                   style="font-variant:normal;font-weight:300;font-size:13.33333302px;font-family:Roboto;-inkscape-font-specification:Roboto-Light;writing-mode:lr-tb;fill:#000000;fill-opacity:1;fill-rule:nonzero;stroke:none"
                   transform="translate(78.12281,95.399994)"><tspan
                     id="tspan564"
                     y="0"
                     x="0 6.8666663 14.333333 21.653334 25.933332 30.16 37.293331 41.573334 48.706665 56.106667 63.57333">contratados</tspan></text>
</g></g></g><g
             transform="scale(381)"
             id="g568" /><g
             id="g570"><g
               id="g572"><g
                 id="g574"><path
                   id="path576"
                   style="fill:#000000;fill-opacity:0;fill-rule:evenodd;stroke:none"
                   d="m 123395.08,156728 h 86328 v 16356 h -86328 z" /></g></g></g><g
             transform="scale(381)"
             id="g578"><g
               transform="translate(323.87158,411.3596)"
               id="g580"><g
                 id="g582"><text
                   id="text586"
                   style="font-variant:normal;font-weight:300;font-size:13.33333302px;font-family:Roboto;-inkscape-font-specification:Roboto-Light;writing-mode:lr-tb;fill:#000000;fill-opacity:1;fill-rule:nonzero;stroke:none"
                   transform="translate(34.959305,21.8)"><tspan
                     id="tspan584"
                     y="0"
                     x="0 9.0133333 15.759999 19 26.4 33.279999 40.026665 47.16 54.32 61.786667 68.533333 71.773331 74.759995 82.079994 88.826668 96.213333 99.199997 103.42667 110.56 117.96 125.42667 132.17332 135.41333 142.73332 149.86667 156.61333">Os desaﬁos inspirados nas </tspan></text>
<text
                   id="text590"
                   style="font-variant:normal;font-weight:300;font-size:13.33333302px;font-family:Roboto;-inkscape-font-specification:Roboto-Light;writing-mode:lr-tb;fill:#000000;fill-opacity:1;fill-rule:nonzero;stroke:none"
                   transform="translate(32.304077,40.199997)"><tspan
                     id="tspan588"
                     y="0"
                     x="0 7.3999996 14.28 26.093332 33.226665 40.546665 47.946667 55.079998 61.826664 65.066666 72.466667 79.599998 86.346664 89.586662 96.466667 108.28 115.66666 120.02666 126.90666 133.65334 140.78667 147.53333 150.77333 155.01334 161.89333">demandas das empresas (e </tspan></text>
<text
                   id="text594"
                   style="font-variant:normal;font-weight:300;font-size:13.33333302px;font-family:Roboto;-inkscape-font-specification:Roboto-Light;writing-mode:lr-tb;fill:#000000;fill-opacity:1;fill-rule:nonzero;stroke:none"
                   transform="translate(30.517677,58.599995)"><tspan
                     id="tspan592"
                     y="0"
                     x="0 4.2799997 11.16 18.026667 25.346666 32.813332 35.799999 43.266666 50.653332 53.639999 60.773331 67.519997 70.759995 77.893333 85.293335 92.759995 97.040001 104.17333 111.57333 118.70667 125.45333 129.78667 133.02666 139.77333 146.65334 150.87999 158.01334 165.48">tecnologias adotadas) serão </tspan></text>
<text
                   id="text598"
                   style="font-variant:normal;font-weight:300;font-size:13.33333302px;font-family:Roboto;-inkscape-font-specification:Roboto-Light;writing-mode:lr-tb;fill:#000000;fill-opacity:1;fill-rule:nonzero;stroke:none"
                   transform="translate(32.938538,77)"><tspan
                     id="tspan596"
                     y="0"
                     x="0 7.3999996 10.386666 17.133333 24.519999 31.986666 39.306667 42.293331 49.68 52.666664 55.653332 58.639999 65.119995 72.253334 79.653328 87.119995 93.866661 97.106667 104.24 111.70667 118.45333 121.69333 128.82666 131.81332 139.13333 146.45332 153.92">disponibilizados aos alunos</tspan></text>
</g></g></g><g
             transform="scale(381)"
             id="g600" /></g></g></g></g></svg>