<?xml version="1.0" encoding="UTF-8" standalone="no"?>
<!DOCTYPE svg PUBLIC "-//W3C//DTD SVG 1.1//EN" "http://www.w3.org/Graphics/SVG/1.1/DTD/svg11.dtd">
<svg xmlns="http://www.w3.org/2000/svg" xmlns:xlink="http://www.w3.org/1999/xlink" version="1.1" width="720pt" height="405pt" viewBox="0 0 720 405">
<g enable-background="new">
<g>
<clipPath id="cp0">
<path transform="matrix(.001968504,0,0,.001968504,0,0)" d="M 0 0 L 365760 0 L 365760 205740 L 0 205740 L 0 0 Z "/>
</clipPath>
<g clip-path="url(#cp0)">
<path transform="matrix(.001968504,0,0,.001968504,0,0)" d="M 0 0 L 365760 0 L 365760 205740 L 0 205740 Z " fill-opacity="0" fill-rule="evenodd"/>
<path transform="matrix(.001968504,0,0,.001968504,0,0)" d="M 274256.1 107053.42 C 273124.04 107053.42 272225.04 107886.02 272125.4 109018.089 L 265098.73 109018.089 C 264932.07 107986.27 263700.4 107586.57 262967.4 108252.52 C 262201.85 108951.68 262534.5 110183.988 263500.57 110450.24 C 262867.8 118308.9 256307.86 124369.53 248415.36 124369.53 C 240523.5 124369.53 233962.9 118308.9 233296.96 110450.24 C 234263 110183.988 234595.67 108951.68 233830.11 108285.73 C 233097.11 107586.57 231898.64 107986.27 231732 109018.089 L 223640.28 109018.089 C 223540.03 108419.17 223040.74 107986.27 222474.38 107953.07 C 221808.42 99860.73 215048.63 93634.08 206923.72 93634.08 C 198831.36 93634.08 192071.57 99860.73 191405.61 107953.07 C 190806.07 107986.27 190339.96 108419.17 190240.35 109018.089 L 182181.2 109018.089 C 182015.19 107986.27 180816.1 107586.57 180050.53 108252.52 C 179317.53 108951.68 179617.63 110183.988 180583.03 110450.24 C 179950.28 118308.9 173390.33 124369.53 165497.85 124369.53 C 157605.99 124369.53 151012.83 118308.9 150380.08 110450.24 C 151345.49 110183.988 151678.78 108951.68 150912.58 108252.52 C 150147.02 107586.57 148947.92 107986.27 148781.27 109018.089 L 140722.77 109018.089 C 140623.16 108419.17 140123.2 107986.27 139524.3 107953.07 C 138824.5 99893.93 132097.9 93733.68 124006.199 93733.68 C 115947.69 93733.68 109221.089 99893.93 108521.29 107953.07 C 107922.378 107986.27 107422.43 108419.17 107322.83 109018.089 L 99064.47 109018.089 C 98798.21 106254.667 94768.64 106487.71 94768.64 109217.94 C 94768.64 111915.6 98798.21 112148.65 99064.47 109417.79 L 107322.83 109417.79 C 107456.27 110417.04 108687.94 110849.949 109454.14 110150.79 C 110186.5 109484.83 109887.05 108219.32 108887.79 107986.27 C 109520.55 100093.77 116114.339 94033.14 124006.199 94033.14 C 131898.05 94033.14 138491.85 100093.77 139124.6 107986.27 C 138125.35 108252.52 137825.89 109484.83 138591.46 110150.79 C 139357.64 110849.949 140556.11 110417.04 140722.77 109417.79 L 148781.27 109417.79 C 148881.52 109984.14 149347.63 110450.24 149947.17 110483.449 C 150613.13 118575.79 157372.92 124769.238 165464.64 124769.238 C 173590.19 124769.238 180316.78 118575.79 180982.74 110483.449 C 181582.3 110450.24 182081.6 110017.339 182181.2 109417.79 L 190240.35 109417.79 C 190406.36 110417.04 191605.47 110849.949 192371.03 110150.79 C 193104.02 109484.83 192803.92 108252.52 191838.52 107986.27 C 192471.27 100093.77 199031.22 94033.14 206956.92 94033.14 C 214848.78 94033.14 221442.57 100093.77 222075.32 107986.27 C 221076.07 108219.32 220776.61 109484.83 221508.97 110150.79 C 222274.53 110849.949 223473.64 110417.04 223640.28 109417.79 L 231732 109417.79 C 231798.39 110017.339 232298.35 110450.24 232897.25 110483.449 C 233563.85 118575.79 240323.66 124802.44 248415.36 124802.44 C 256540.9 124802.44 263267.5 118575.79 263933.48 110483.449 C 264532.39 110450.24 264999.14 110017.339 265098.73 109417.79 L 272125.4 109417.79 C 272324.64 111282.84 274622.6 112015.2 275854.9 110650.09 C 277086.57 109251.78 276121.17 107053.42 274256.1 107053.42 Z " fill="#f6f6f6" fill-rule="evenodd"/>
<path transform="matrix(.001968504,0,0,.001968504,0,0)" stroke-width="762" stroke-linecap="butt" stroke-linejoin="round" fill="none" stroke="#ffffff" d="M 274256.1 107053.42 C 273124.04 107053.42 272225.04 107886.02 272125.4 109018.089 L 265098.73 109018.089 C 264932.07 107986.27 263700.4 107586.57 262967.4 108252.52 C 262201.85 108951.68 262534.5 110183.988 263500.57 110450.24 C 262867.8 118308.9 256307.86 124369.53 248415.36 124369.53 C 240523.5 124369.53 233962.9 118308.9 233296.96 110450.24 C 234263 110183.988 234595.67 108951.68 233830.11 108285.73 C 233097.11 107586.57 231898.64 107986.27 231732 109018.089 L 223640.28 109018.089 C 223540.03 108419.17 223040.74 107986.27 222474.38 107953.07 C 221808.42 99860.73 215048.63 93634.08 206923.72 93634.08 C 198831.36 93634.08 192071.57 99860.73 191405.61 107953.07 C 190806.07 107986.27 190339.96 108419.17 190240.35 109018.089 L 182181.2 109018.089 C 182015.19 107986.27 180816.1 107586.57 180050.53 108252.52 C 179317.53 108951.68 179617.63 110183.988 180583.03 110450.24 C 179950.28 118308.9 173390.33 124369.53 165497.85 124369.53 C 157605.99 124369.53 151012.83 118308.9 150380.08 110450.24 C 151345.49 110183.988 151678.78 108951.68 150912.58 108252.52 C 150147.02 107586.57 148947.92 107986.27 148781.27 109018.089 L 140722.77 109018.089 C 140623.16 108419.17 140123.2 107986.27 139524.3 107953.07 C 138824.5 99893.93 132097.9 93733.68 124006.199 93733.68 C 115947.69 93733.68 109221.089 99893.93 108521.29 107953.07 C 107922.378 107986.27 107422.43 108419.17 107322.83 109018.089 L 99064.47 109018.089 C 98798.21 106254.667 94768.64 106487.71 94768.64 109217.94 C 94768.64 111915.6 98798.21 112148.65 99064.47 109417.79 L 107322.83 109417.79 C 107456.27 110417.04 108687.94 110849.949 109454.14 110150.79 C 110186.5 109484.83 109887.05 108219.32 108887.79 107986.27 C 109520.55 100093.77 116114.339 94033.14 124006.199 94033.14 C 131898.05 94033.14 138491.85 100093.77 139124.6 107986.27 C 138125.35 108252.52 137825.89 109484.83 138591.46 110150.79 C 139357.64 110849.949 140556.11 110417.04 140722.77 109417.79 L 148781.27 109417.79 C 148881.52 109984.14 149347.63 110450.24 149947.17 110483.449 C 150613.13 118575.79 157372.92 124769.238 165464.64 124769.238 C 173590.19 124769.238 180316.78 118575.79 180982.74 110483.449 C 181582.3 110450.24 182081.6 110017.339 182181.2 109417.79 L 190240.35 109417.79 C 190406.36 110417.04 191605.47 110849.949 192371.03 110150.79 C 193104.02 109484.83 192803.92 108252.52 191838.52 107986.27 C 192471.27 100093.77 199031.22 94033.14 206956.92 94033.14 C 214848.78 94033.14 221442.57 100093.77 222075.32 107986.27 C 221076.07 108219.32 220776.61 109484.83 221508.97 110150.79 C 222274.53 110849.949 223473.64 110417.04 223640.28 109417.79 L 231732 109417.79 C 231798.39 110017.339 232298.35 110450.24 232897.25 110483.449 C 233563.85 118575.79 240323.66 124802.44 248415.36 124802.44 C 256540.9 124802.44 263267.5 118575.79 263933.48 110483.449 C 264532.39 110450.24 264999.14 110017.339 265098.73 109417.79 L 272125.4 109417.79 C 272324.64 111282.84 274622.6 112015.2 275854.9 110650.09 C 277086.57 109251.78 276121.17 107053.42 274256.1 107053.42 Z "/>
<path transform="matrix(.001968504,0,0,.001968504,0,0)" d="M 124006.19 96564.16 C 117013.339 96564.16 111352.4 102225.09 111352.4 109217.95 C 111352.4 116211.44 117013.339 121872.38 124006.19 121872.38 C 130999.04 121872.38 136659.99 116211.44 136659.99 109217.95 C 136659.99 102225.09 130999.04 96564.16 124006.19 96564.16 Z " fill="#3044ff" fill-rule="evenodd"/>
<path transform="matrix(.001968504,0,0,.001968504,0,0)" d="M 124006.16 94499.92 L 121608.6 96797.24 L 126403.72 96797.24 L 124006.16 94499.92 Z " fill="#3044ff" fill-rule="evenodd"/>
<path transform="matrix(.001968504,0,0,.001968504,0,0)" d="M 124006.18 67892.96 C 122574.019 67892.96 121408.76 69058.23 121408.76 70490.38 C 121408.76 71922.54 122574.019 73087.808 124006.18 73087.808 C 125438.339 73087.808 126603.59 71922.54 126603.59 70490.38 C 126603.59 69058.23 125438.339 67892.96 124006.18 67892.96 Z " fill="#3044ff" fill-rule="evenodd"/>
<path transform="matrix(.001968504,0,0,.001968504,0,0)" d="M 124006.16 69025.04 C 123206.75 69025.04 122540.8 69690.99 122540.8 70490.4 C 122540.8 71289.808 123206.75 71955.76 124006.16 71955.76 C 124805.56 71955.76 125471.519 71289.808 125471.519 70490.4 C 125471.519 69690.99 124805.56 69025.04 124006.16 69025.04 Z " fill="#3044ff" fill-rule="evenodd"/>
<path transform="matrix(.001968504,0,0,.001968504,0,0)" d="M 124006.167 97396.8 L 124006.167 72688.12 " fill-opacity="0" fill-rule="evenodd"/>
<path transform="matrix(.001968504,0,0,.001968504,0,0)" stroke-width="991" stroke-linecap="round" stroke-miterlimit="52.153" stroke-linejoin="miter" fill="none" stroke="#3044ff" d="M 124006.167 97396.8 L 124006.167 72688.12 "/>
<path transform="matrix(.001968504,0,0,.001968504,0,0)" d="M 124006.16 99994.2 C 118910.94 99994.2 114781.76 104123.378 114781.76 109217.96 C 114781.76 114279.988 118910.94 118409.167 124006.16 118409.167 C 129100.75 118409.167 133196.72 114279.988 133196.72 109217.96 C 133196.72 104123.378 129100.75 99994.2 124006.16 99994.2 Z " fill-rule="evenodd"/>
<path transform="matrix(.001968504,0,0,.001968504,0,0)" d="M 124006.16 99994.2 C 118910.94 99994.2 114781.76 104123.378 114781.76 109217.96 C 114781.76 114279.988 118910.94 118409.167 124006.16 118409.167 C 129100.75 118409.167 133196.72 114279.988 133196.72 109217.96 C 133196.72 104123.378 129100.75 99994.2 124006.16 99994.2 Z " fill="#052643" fill-rule="evenodd"/>
<path transform="matrix(.001968504,0,0,.001968504,0,0)" d="M 124986.93 104518.589 C 126409.51 104518.589 127747.808 105759.839 127469.417 107453.14 C 127302.769 108518.8 126470.167 109351.4 125438.34 109551.25 C 125285.74 109576.16 125136.98 109588.28 124992.03 109588.28 C 122828.16 109588.28 121583.72 106911.69 123206.79 105288.62 C 123732.27 104753.558 124367.58 104518.589 124986.93 104518.589 Z M 124372.69 103357.16 C 124272.449 103357.16 124172.839 103457.4 124172.839 103557.01 L 124172.839 103756.86 C 124172.839 103823.9 124105.8 103890.308 124039.39 103923.51 C 123839.54 103989.917 123639.69 104056.95 123473.04 104156.56 C 123432.18 104170.61 123396.42 104178.269 123363.86 104178.269 C 123318.52 104178.269 123278.94 104162.308 123239.988 104123.36 L 123107.18 103989.917 C 123073.98 103956.71 123023.54 103940.11 122973.738 103940.11 C 122923.93 103940.11 122874.128 103956.71 122840.92 103989.917 L 121941.28 104888.92 C 121874.878 104955.96 121874.878 105088.77 121941.28 105155.81 L 122074.73 105288.62 C 122141.128 105355.667 122141.128 105455.27 122107.93 105521.67 C 122008.32 105721.52 121941.28 105888.17 121874.878 106088.02 C 121841.67 106187.63 121775.269 106221.47 121675.02 106254.67 L 121508.378 106254.67 C 121375.56 106254.67 121308.52 106321.08 121308.52 106421.32 L 121308.52 107686.19 C 121308.52 107786.44 121375.56 107886.04 121508.378 107886.04 L 121675.02 107886.04 C 121775.269 107886.04 121841.67 107953.089 121874.878 108019.49 C 121941.28 108219.339 122008.32 108419.19 122107.93 108585.2 C 122141.128 108652.24 122141.128 108751.85 122074.73 108818.89 L 121941.28 108951.7 C 121874.878 109018.1 121874.878 109151.55 121941.28 109217.95 L 122840.92 110117.6 C 122874.128 110150.808 122915.63 110167.41 122961.6 110167.41 C 123006.94 110167.41 123057.378 110150.808 123107.18 110117.6 L 123239.988 109984.16 C 123278.94 109945.2 123329.378 109929.24 123377.91 109929.24 C 123412.38 109929.24 123445.589 109936.91 123473.04 109950.95 C 123639.69 110050.56 123839.54 110117.6 124039.39 110184.01 C 124105.8 110217.21 124172.839 110283.61 124172.839 110383.86 L 124172.839 110583.71 C 124172.839 110683.31 124272.449 110749.72 124372.69 110749.72 L 125637.558 110749.72 C 125737.808 110749.72 125804.21 110683.31 125804.21 110583.71 L 125804.21 110350.66 C 125804.21 110250.417 125871.25 110184.01 125970.86 110150.808 C 126170.7 110117.6 126337.35 110017.36 126537.2 109950.95 C 126565.3 109922.86 126599.14 109912.64 126634.26 109912.64 C 126682.15 109912.64 126731.31 109931.8 126770.26 109950.95 L 126903.07 110117.6 C 126936.269 110150.808 126986.71 110167.41 127036.519 110167.41 C 127086.32 110167.41 127136.12 110150.808 127169.96 110117.6 L 128068.97 109217.95 C 128135.378 109151.55 128135.378 109018.1 128068.97 108951.7 L 127935.52 108818.89 C 127869.12 108751.85 127869.12 108652.24 127902.32 108585.2 C 128001.93 108419.19 128068.97 108219.339 128135.378 108019.49 C 128168.58 107953.089 128234.98 107886.04 128302.02 107886.04 L 128501.878 107886.04 C 128601.48 107886.04 128701.73 107786.44 128701.73 107686.19 L 128701.73 106421.32 C 128701.73 106321.08 128601.48 106254.67 128501.878 106254.67 L 128302.02 106254.67 C 128234.98 106221.47 128135.378 106187.63 128135.378 106088.02 C 128068.97 105888.17 128001.93 105721.52 127902.32 105521.67 C 127835.917 105455.27 127869.12 105355.667 127935.52 105288.62 L 128068.97 105155.81 C 128135.378 105088.77 128135.378 104955.96 128068.97 104888.92 L 127169.96 103989.917 C 127136.12 103956.71 127086.32 103940.11 127036.519 103940.11 C 126986.71 103940.11 126936.269 103956.71 126903.07 103989.917 L 126770.26 104123.36 C 126728.76 104164.22 126675.128 104192.95 126624.04 104192.95 C 126592.76 104192.95 126562.11 104182.1 126537.2 104156.56 C 126337.35 104056.95 126170.7 103989.917 125970.86 103923.51 C 125871.25 103890.308 125804.21 103823.9 125804.21 103756.86 L 125804.21 103557.01 C 125804.21 103457.4 125737.808 103357.16 125637.558 103357.16 Z " fill="#3044ff" fill-rule="evenodd"/>
<path transform="matrix(.001968504,0,0,.001968504,0,0)" d="M 125005.44 104955.96 C 123140.378 104955.96 122174.32 107220.07 123506.878 108551.98 C 123934.67 108980.41 124458.88 109170.68 124972.878 109170.68 C 126059.61 109170.68 127102.92 108319.56 127102.92 107053.42 C 127102.92 105888.167 126170.71 104955.96 125005.44 104955.96 Z " fill="#3044ff" fill-rule="evenodd"/>
<path transform="matrix(.001968504,0,0,.001968504,0,0)" d="M 121909.339 110717.167 C 122918.167 110717.167 123882.94 111602.769 123672.878 112814.64 C 123540.07 113547 122940.519 114113.34 122208.16 114246.8 C 122095.14 114266.589 121985.32 114276.167 121878.69 114276.167 C 120378.21 114276.167 119525.81 112399.61 120676.39 111249.67 C 121035.87 110879.988 121476.43 110717.167 121909.339 110717.167 Z M 121475.16 109883.92 C 121408.75 109883.92 121342.35 109950.96 121342.35 110017.37 L 121342.35 110150.81 C 121342.35 110217.22 121308.51 110250.42 121242.1 110283.628 C 121109.3 110316.83 120942.65 110383.87 120809.2 110450.27 C 120792.6 110466.878 120767.699 110475.17 120742.8 110475.17 C 120717.89 110475.17 120692.99 110466.878 120676.39 110450.27 L 120576.15 110350.667 C 120542.949 110334.06 120509.74 110325.128 120476.54 110325.128 C 120442.7 110325.128 120409.5 110334.06 120376.3 110350.667 L 119776.74 110983.42 C 119710.34 111016.628 119710.34 111116.23 119776.74 111182.63 L 119843.79 111249.67 C 119876.99 111316.08 119876.99 111382.488 119843.79 111416.32 C 119776.74 111549.13 119743.54 111682.58 119677.14 111849.23 C 119677.14 111882.43 119610.738 111948.83 119543.699 111948.83 L 119410.88 111948.83 C 119343.84 111948.83 119277.44 111982.03 119277.44 112082.28 L 119277.44 112948.089 C 119277.44 113047.69 119343.84 113080.89 119410.88 113080.89 L 119576.89 113080.89 C 119610.738 113080.89 119677.14 113147.3 119710.34 113181.13 C 119743.54 113347.15 119776.74 113480.59 119876.99 113614.04 C 119876.99 113647.24 119876.99 113713.65 119843.79 113780.05 L 119743.54 113880.3 C 119677.14 113913.5 119677.14 114013.1 119743.54 114046.949 L 120376.3 114679.699 C 120392.9 114712.9 120426.1 114729.5 120459.94 114729.5 C 120493.14 114729.5 120526.34 114712.9 120542.949 114679.699 L 120642.558 114579.45 C 120676.39 114562.85 120709.59 114554.55 120738.33 114554.55 C 120767.699 114554.55 120792.6 114562.85 120809.2 114579.45 C 120942.65 114645.86 121075.45 114712.9 121242.1 114746.1 C 121275.308 114746.1 121342.35 114812.51 121342.35 114878.91 L 121342.35 115012.35 C 121342.35 115078.76 121375.55 115145.808 121475.16 115145.808 L 122340.96 115145.808 C 122408.01 115145.808 122474.41 115078.76 122474.41 115012.35 L 122474.41 114878.91 C 122474.41 114812.51 122507.61 114746.1 122574.019 114746.1 C 122740.667 114712.9 122874.11 114645.86 123006.92 114579.45 C 123023.52 114562.85 123049.06 114554.55 123077.79 114554.55 C 123107.167 114554.55 123140.37 114562.85 123173.57 114579.45 L 123273.81 114679.699 C 123290.417 114712.9 123323.62 114729.5 123356.82 114729.5 C 123390.019 114729.5 123423.22 114712.9 123439.82 114679.699 L 124072.58 114046.949 C 124139.62 114013.1 124139.62 113913.5 124072.58 113880.3 L 123972.97 113780.05 C 123939.769 113713.65 123939.769 113647.24 123939.769 113614.04 C 124006.17 113480.59 124072.58 113347.15 124105.78 113181.13 C 124139.62 113114.09 124206.02 113080.89 124239.23 113080.89 L 124372.67 113080.89 C 124472.27 113080.89 124505.48 113014.488 124505.48 112948.089 L 124505.48 112048.44 C 124505.48 111982.03 124472.27 111915.63 124372.67 111915.63 L 124239.23 111915.63 C 124172.82 111915.63 124139.62 111882.43 124105.78 111815.38 C 124072.58 111682.58 124006.17 111549.13 123939.769 111416.32 C 123905.93 111349.28 123939.769 111282.878 123972.97 111249.67 L 124072.58 111149.43 C 124105.78 111116.23 124105.78 111016.628 124072.58 110949.58 L 123439.82 110350.667 C 123406.62 110316.83 123373.417 110300.23 123340.22 110300.23 C 123307.019 110300.23 123273.81 110316.83 123239.97 110350.667 L 123173.57 110450.27 C 123140.37 110466.878 123107.167 110475.17 123077.79 110475.17 C 123049.06 110475.17 123023.52 110466.878 123006.92 110450.27 C 122874.11 110383.87 122707.46 110316.83 122574.019 110283.628 C 122507.61 110250.42 122474.41 110217.22 122474.41 110150.81 L 122474.41 110017.37 C 122474.41 109950.96 122408.01 109883.92 122340.96 109883.92 Z " fill="#3044ff" fill-rule="evenodd"/>
<path transform="matrix(.001968504,0,0,.001968504,0,0)" d="M 121908.058 111049.84 C 120609.35 111049.84 119976.6 112614.81 120875.6 113513.83 C 121178.25 113816.48 121547.949 113950.56 121908.699 113950.56 C 122659.56 113950.56 123373.41 113369.52 123373.41 112515.21 C 123373.41 111682.6 122707.45 111049.84 121908.058 111049.84 Z " fill="#3044ff" fill-rule="evenodd"/>
<path transform="matrix(.001968504,0,0,.001968504,0,0)" d="M 206956.9 67892.96 C 205491.55 67892.96 204326.28 69058.23 204326.28 70490.38 C 204326.28 71922.54 205491.55 73087.808 206956.9 73087.808 C 208388.42 73087.808 209554.33 71922.54 209554.33 70490.38 C 209554.33 69058.23 208388.42 67892.96 206956.9 67892.96 Z " fill="#3044ff" fill-rule="evenodd"/>
<path transform="matrix(.001968504,0,0,.001968504,0,0)" d="M 206956.92 96564.16 C 199963.42 96564.16 194269.28 102225.09 194269.28 109217.95 C 194269.28 116211.44 199963.42 121872.38 206956.92 121872.38 C 213916.57 121872.38 219610.7 116211.44 219610.7 109217.95 C 219610.7 102225.09 213916.57 96564.16 206956.92 96564.16 Z " fill="#3044ff" fill-rule="evenodd"/>
<path transform="matrix(.001968504,0,0,.001968504,0,0)" d="M 206956.89 94499.92 L 204526.13 96797.24 L 209354.44 96797.24 L 206956.89 94499.92 Z " fill="#3044ff" fill-rule="evenodd"/>
<path transform="matrix(.001968504,0,0,.001968504,0,0)" d="M 206956.92 98095.96 L 206956.92 70490.4 " fill-opacity="0" fill-rule="evenodd"/>
<path transform="matrix(.001968504,0,0,.001968504,0,0)" stroke-width="991" stroke-linecap="round" stroke-miterlimit="52.153" stroke-linejoin="miter" fill="none" stroke="#3044ff" d="M 206956.92 98095.96 L 206956.92 70490.4 "/>
<path transform="matrix(.001968504,0,0,.001968504,0,0)" d="M 206923.72 69025.04 C 206124.32 69025.04 205491.57 69657.8 205491.57 70457.199 C 205491.57 71255.96 206124.32 71922.56 206923.72 71922.56 C 207722.49 71922.56 208388.44 71255.96 208388.44 70457.199 C 208388.44 69657.8 207722.49 69025.04 206923.72 69025.04 Z " fill="#3044ff" fill-rule="evenodd"/>
<path transform="matrix(.001968504,0,0,.001968504,0,0)" d="M 206956.89 99994.2 C 201861.66 99994.2 197732.49 104123.378 197732.49 109217.96 C 197732.49 114279.988 201861.66 118409.167 206956.89 118409.167 C 212018.27 118409.167 216147.46 114279.988 216147.46 109217.96 C 216147.46 104123.378 212018.27 99994.2 206956.89 99994.2 Z " fill-rule="evenodd"/>
<path transform="matrix(.001968504,0,0,.001968504,0,0)" d="M 206956.89 99994.2 C 201861.66 99994.2 197732.49 104123.38 197732.49 109217.97 C 197732.49 114280 201861.66 118409.18 206956.89 118409.18 C 212018.28 118409.18 216147.47 114280 216147.47 109217.97 C 216147.47 104123.38 212018.28 99994.2 206956.89 99994.2 Z " fill="#052643" fill-rule="evenodd"/>
<path transform="matrix(.001968504,0,0,.001968504,0,0)" d="M 165464.63 145315.57 C 164033.11 145315.57 162867.2 146480.83 162867.2 147912.99 C 162867.2 149377.7 164033.11 150543.61 165464.63 150543.61 C 166896.78 150543.61 168062.05 149377.7 168062.05 147912.99 C 168062.05 146480.83 166896.78 145315.57 165464.63 145315.57 Z " fill="#3044ff" fill-rule="evenodd"/>
<path transform="matrix(.001968504,0,0,.001968504,0,0)" d="M 165464.64 96564.16 C 158471.78 96564.16 152810.85 102225.09 152810.85 109217.95 C 152810.85 116211.44 158471.78 121872.38 165464.64 121872.38 C 172458.13 121872.38 178119.07 116211.44 178119.07 109217.95 C 178119.07 102225.09 172458.13 96564.16 165464.64 96564.16 Z " fill="#3044ff" fill-rule="evenodd"/>
<path transform="matrix(.001968504,0,0,.001968504,0,0)" d="M 163000.64 121605.52 L 165398.2 123903.488 L 167795.77 121605.52 Z " fill="#3044ff" fill-rule="evenodd"/>
<path transform="matrix(.001968504,0,0,.001968504,0,0)" d="M 165464.6 147913 L 165464.6 117809.64 " fill-opacity="0" fill-rule="evenodd"/>
<path transform="matrix(.001968504,0,0,.001968504,0,0)" stroke-width="991" stroke-linecap="butt" stroke-miterlimit="52.153" stroke-linejoin="miter" fill="none" stroke="#3044ff" d="M 165464.6 147913 L 165464.6 117809.64 "/>
<path transform="matrix(.001968504,0,0,.001968504,0,0)" d="M 165464.64 146480.85 C 164665.88 146480.85 164033.13 147113.6 164033.13 147913 C 164033.13 148711.77 164665.88 149377.72 165464.64 149377.72 C 166264.05 149377.72 166930 148711.77 166930 147913 C 166930 147113.6 166264.05 146480.85 165464.64 146480.85 Z " fill="#3044ff" fill-rule="evenodd"/>
<path transform="matrix(.001968504,0,0,.001968504,0,0)" d="M 165464.61 99994.2 C 160403.22 99994.2 156274.05 104123.378 156274.05 109217.96 C 156274.05 114279.988 160403.22 118409.167 165464.61 118409.167 C 170559.83 118409.167 174689 114279.988 174689 109217.96 C 174689 104123.378 170559.83 99994.2 165464.61 99994.2 Z " fill-rule="evenodd"/>
<path transform="matrix(.001968504,0,0,.001968504,0,0)" d="M 165464.61 99994.2 C 160403.22 99994.2 156274.05 104123.378 156274.05 109217.96 C 156274.05 114279.988 160403.22 118409.167 165464.61 118409.167 C 170559.83 118409.167 174689 114279.988 174689 109217.96 C 174689 104123.378 170559.83 99994.2 165464.61 99994.2 Z " fill="#052643" fill-rule="evenodd"/>
<path transform="matrix(.001968504,0,0,.001968504,0,0)" d="M 248415.35 145315.57 C 246949.99 145315.57 245784.72 146480.83 245784.72 147912.99 C 245784.72 149377.7 246949.99 150543.61 248415.35 150543.61 C 249847.5 150543.61 251012.77 149377.7 251012.77 147912.99 C 251012.77 146480.83 249847.5 145315.57 248415.35 145315.57 Z " fill="#3044ff" fill-rule="evenodd"/>
<path transform="matrix(.001968504,0,0,.001968504,0,0)" d="M 248415.36 96564.16 C 241422.5 96564.16 235728.36 102225.1 235728.36 109217.95 C 235728.36 116211.45 241422.5 121872.4 248415.36 121872.4 C 255408.22 121872.4 261069.16 116211.45 261069.16 109217.95 C 261069.16 102225.1 255408.22 96564.16 248415.36 96564.16 Z " fill="#3044ff" fill-rule="evenodd"/>
<path transform="matrix(.001968504,0,0,.001968504,0,0)" d="M 245951.36 121605.52 L 248348.92 123903.488 L 250746.49 121605.52 Z " fill="#3044ff" fill-rule="evenodd"/>
<path transform="matrix(.001968504,0,0,.001968504,0,0)" d="M 248415.36 147913 L 248415.36 114280 " fill-opacity="0" fill-rule="evenodd"/>
<path transform="matrix(.001968504,0,0,.001968504,0,0)" stroke-width="991" stroke-linecap="round" stroke-miterlimit="52.153" stroke-linejoin="miter" fill="none" stroke="#3044ff" d="M 248415.36 147913 L 248415.36 114280 "/>
<path transform="matrix(.001968504,0,0,.001968504,0,0)" d="M 248382.16 146447.64 C 247582.75 146447.64 246950 147080.39 246950 147879.8 C 246950 148711.77 247582.75 149344.52 248382.16 149344.52 C 249214.77 149344.52 249847.52 148711.77 249847.52 147879.8 C 249847.52 147080.39 249214.77 146447.64 248382.16 146447.64 Z " fill="#3044ff" fill-rule="evenodd"/>
<path transform="matrix(.001968504,0,0,.001968504,0,0)" d="M 248415.33 99994.2 C 243320.74 99994.2 239191.57 104123.378 239191.57 109217.96 C 239191.57 114279.988 243320.74 118409.167 248415.33 118409.167 C 253476.7 118409.167 257605.89 114279.988 257605.89 109217.96 C 257605.89 104123.378 253476.7 99994.2 248415.33 99994.2 Z " fill-rule="evenodd"/>
<path transform="matrix(.001968504,0,0,.001968504,0,0)" d="M 248415.33 99994.2 C 243320.74 99994.2 239191.57 104123.378 239191.57 109217.96 C 239191.57 114279.988 243320.74 118409.167 248415.33 118409.167 C 253476.7 118409.167 257605.89 114279.988 257605.89 109217.96 C 257605.89 104123.378 253476.7 99994.2 248415.33 99994.2 Z " fill="#052643" fill-rule="evenodd"/>
<path transform="matrix(.001968504,0,0,.001968504,0,0)" d="M 107364 40710 L 142788 40710 L 142788 48558 L 107364 48558 Z " fill-opacity="0" fill-rule="evenodd"/>
<text fill="#ffffff" xml:space="preserve" transform="matrix(.75 0 0 .75 211.34647 80.137798)" font-size="16" font-family="Roboto"><tspan y="24.36" x="12.050686 22.050686 30.994687 39.65069 48.59469 59.09069 69.82669">SELE&#x00c7;&#x00c3;O</tspan></text>
<path transform="matrix(.001968504,0,0,.001968504,0,0)" d="M 35002.52 111405.08 L 109378.519 111405.08 L 109378.519 127761.08 L 35002.52 127761.08 Z " fill-opacity="0" fill-rule="evenodd"/>
<text fill="#ffffff" xml:space="preserve" transform="matrix(.75 0 0 .75 68.9026 219.30135)" font-size="13.333333" font-family="Roboto"><tspan y="21.8" x="22.108399 26.348399 33.735067 41.12173 46.40173 53.788396 61.17506 66.45506 73.84173 81.22839 88.61506 96.001728 99.24172 103.05505 106.29505 112.775058 119.25506 124.53506 131.01506 137.49506 142.77506 149.25505 155.73505 162.21504 168.69504">(20/08/2021 - xx/xx/xxxx)</tspan></text>
<path transform="matrix(.001968504,0,0,.001968504,0,0)" d="M 203442.86 111366.738 C 202908.77 111366.738 202477.85 111825.878 202477.85 112397.44 L 202477.85 113146.99 C 202477.85 113296.9 202599.55 113428 202740.19 113428 L 203864.52 113428 C 203836.3 113343.64 203817.64 113250.019 203817.64 113146.99 L 203817.64 111366.738 Z " fill="#3044ff" fill-rule="evenodd"/>
<path transform="matrix(.001968504,0,0,.001968504,0,0)" d="M 205297.92 109877.04 C 204773.24 109877.04 204342.33 110336.18 204342.33 110907.6 L 204342.33 113146.99 C 204342.33 113296.9 204454.75 113428 204595.27 113428 L 205719.58 113428 C 205700.92 113343.64 205672.7 113250.019 205672.7 113146.99 L 205672.7 109877.04 Z " fill="#3044ff" fill-rule="evenodd"/>
<path transform="matrix(.001968504,0,0,.001968504,0,0)" d="M 209223.8 103908.72 C 209139.44 103908.72 209064.49 103955.6 209017.61 104021.15 L 207153.14 106700.86 C 207096.85 106785.08 207078.17 106906.917 207125.07 107000.68 C 207171.8 107094.308 207256.16 107150.59 207359.19 107150.59 L 208033.78 107150.59 L 208033.78 113146.99 C 208033.78 113296.9 208146.22 113428 208286.86 113428 L 210151.33 113428 C 210291.85 113428 210404.27 113296.9 210404.27 113146.99 L 210404.27 107150.59 L 211069.46 107150.59 C 211163.22 107150.59 211266.25 107094.308 211303.74 107000.68 C 211369.28 106906.917 211360.02 106785.08 211294.33 106700.86 L 209439.27 104021.15 C 209392.38 103955.6 209308.02 103908.72 209223.8 103908.72 Z " fill="#3044ff" fill-rule="evenodd"/>
<path transform="matrix(.001968504,0,0,.001968504,0,0)" d="M 207153.14 108377.949 C 206628.46 108377.949 206188.13 108837.08 206188.13 109408.5 L 206188.13 113146.99 C 206188.13 113296.9 206309.82 113428 206450.47 113428 L 207574.8 113428 C 207546.58 113343.64 207527.9 113250.019 207527.9 113146.99 L 207527.9 108377.949 Z " fill="#3044ff" fill-rule="evenodd"/>
<path transform="matrix(.001968504,0,0,.001968504,0,0)" d="M 248374.11 105700.78 C 249449.25 105700.78 250324.67 106576.199 250324.67 107651.34 C 250324.67 108726.488 249449.25 109594.31 248374.11 109594.31 C 247298.97 109594.31 246423.44 108726.488 246423.44 107651.34 C 246423.44 106568.488 247298.97 105700.78 248374.11 105700.78 Z M 247588.28 104356.76 C 247420.8 104356.76 247278.19 104452.77 247160.69 104648.64 C 246976.38 104955.83 246707.61 105109.42 246354.3 105109.42 C 246001.1 105109.42 245816.78 105293.738 245816.78 105646.94 C 245809.08 106007.96 245655.49 106276.72 245356.02 106453.32 C 245048.83 106637.63 244979.69 106875.67 245156.28 107198.27 C 245325.3 107505.46 245325.3 107820.35 245156.28 108127.53 C 244979.69 108434.72 245048.83 108680.47 245356.02 108864.77 C 245663.19 109049.089 245816.78 109317.84 245816.78 109671.05 C 245824.5 110032.08 246001.1 110208.68 246354.3 110208.68 C 246707.61 110208.68 246976.38 110377.57 247160.69 110669.45 C 247279.58 110867.667 247424.07 110966.71 247594.13 110966.71 C 247687.69 110966.71 247788.96 110936.699 247897.92 110876.77 C 248051.52 110788.48 248208.96 110744.33 248366.4 110744.33 C 248523.86 110744.33 248681.3 110788.48 248834.89 110876.77 C 248944.1 110934.128 249045.49 110963.33 249139.16 110963.33 C 249308.99 110963.33 249453.35 110867.43 249572.13 110669.45 C 249756.44 110362.27 250025.2 110208.68 250378.4 110208.68 C 250731.72 110208.68 250916.03 110032.08 250916.03 109671.05 C 250923.74 109317.84 251077.33 109049.089 251376.8 108864.77 C 251683.99 108680.47 251753.13 108434.72 251576.4 108127.53 C 251407.52 107820.35 251407.52 107505.46 251576.4 107198.27 C 251753.13 106891.089 251683.99 106637.63 251376.8 106453.32 C 251069.63 106276.72 250916.03 106007.96 250916.03 105646.94 C 250908.32 105293.738 250731.72 105109.42 250378.4 105109.42 C 250025.2 105101.71 249756.44 104948.12 249572.13 104648.64 C 249454.52 104452.77 249312.02 104356.76 249144.53 104356.76 C 249049.33 104356.76 248946.08 104387.71 248834.89 104448.917 C 248681.3 104537.339 248523.86 104581.488 248366.4 104581.488 C 248208.96 104581.488 248051.52 104537.339 247897.92 104448.917 C 247786.61 104387.71 247683.36 104356.76 247588.28 104356.76 Z " fill="#3044ff" fill-rule="evenodd"/>
<path transform="matrix(.001968504,0,0,.001968504,0,0)" d="M 245908.94 110316.13 L 244449.77 113188.37 L 245617.07 113050.08 L 246262.14 114033.06 C 246262.14 114033.06 247599.27 111252.64 247613.63 111237.69 L 247613.75 111237.69 L 247613.63 111237.69 C 246914.94 111222.27 247191.4 110508.16 246331.28 110492.85 C 245954.96 110492.85 245908.94 110316.13 245908.94 110316.13 Z " fill="#3044ff" fill-rule="evenodd"/>
<path transform="matrix(.001968504,0,0,.001968504,0,0)" d="M 250808.46 110423.71 C 249748.74 110538.878 249956.05 110800.04 249718.02 111007.36 C 249516.53 111219.7 249280.25 111250.66 249159.83 111250.66 C 249110.53 111250.66 249080.64 111245.4 249080.64 111245.4 L 250731.72 114079.2 L 251138.77 113034.77 L 252290.64 113188.37 L 250808.46 110423.71 Z " fill="#3044ff" fill-rule="evenodd"/>
<path transform="matrix(.001968504,0,0,.001968504,0,0)" d="M 248374.11 106399.59 L 247959.36 107228.99 L 247045.52 107359.58 L 247713.61 108004.667 L 247560.02 108903.089 L 248374.11 108480.74 L 249188.1 108903.089 L 249034.5 108004.667 L 249687.3 107359.58 L 248773.46 107228.99 L 248374.11 106399.59 Z " fill="#3044ff" fill-rule="evenodd"/>
<path transform="matrix(.001968504,0,0,.001968504,0,0)" d="M 165472.89 104674.449 C 164022.5 104674.449 163766.55 105660.949 163766.55 106881.988 C 163766.55 108108.46 164529.05 109100.238 165472.89 109100.238 C 166411.39 109100.238 167168.53 108108.46 167168.53 106887.339 C 167168.53 105660.949 166917.94 104674.449 165472.89 104674.449 Z " fill="#3044ff" fill-rule="evenodd"/>
<path transform="matrix(.001968504,0,0,.001968504,0,0)" d="M 164529.05 109265.59 C 162566.75 109649.52 162289.47 110246.74 162252.17 112320.96 C 162252.17 112450.63 162248.85 112488.43 162247.47 112488.43 C 162247.07 112488.43 162246.82 112485.51 162246.82 112480.97 L 162246.82 112704.88 C 162246.82 112704.88 162716.07 113728.69 165456.92 113728.69 C 168197.69 113728.69 168672.3 112704.88 168672.3 112704.88 L 168672.3 112539.6 C 168674.08 112542.28 168675.53 112543.74 168676.75 112543.74 C 168682.75 112543.74 168682.02 112506.68 168677.64 112395.65 C 168645.61 110262.72 168384.3 109654.8 166395.4 109265.59 C 166395.4 109265.59 166118.13 109649.52 165462.19 109649.52 C 164811.69 109649.52 164529.05 109265.59 164529.05 109265.59 Z " fill="#3044ff" fill-rule="evenodd"/>
<path transform="matrix(.001968504,0,0,.001968504,0,0)" d="M 49831.48 102230 L 94543.48 102230 L 94543.48 110078 L 49831.48 110078 Z " fill-opacity="0" fill-rule="evenodd"/>
<text fill="#ffffff" xml:space="preserve" transform="matrix(.75 0 0 .75 98.09347 201.24018)" font-size="16" font-family="Roboto"><tspan y="24.36" x="16.614663 21.430663 32.662664 42.662664 53.15866 63.59066 68.40666 78.902667 89.638668">INSCRI&#x00c7;&#x00c3;O</tspan></text>
<path transform="matrix(.001968504,0,0,.001968504,0,0)" d="M 166067.08 25664 L 252395.08 25664 L 252395.08 42020 L 166067.08 42020 Z " fill-opacity="0" fill-rule="evenodd"/>
<text fill="#ffffff" xml:space="preserve" transform="matrix(.75 0 0 .75 326.9037 50.519685)" font-size="13.333333" font-family="Roboto"><tspan y="21.8" x="13.268562 21.521895 28.988562 32.22856 35.21523 42.681898 50.001897 57.38856 64.855228 68.09522 75.495227 82.37522 85.61522 93.001888 96.24188 108.055217 114.93521 121.68188 128.56188 135.30855 138.54856 146.01522 149.25522 156.38855 159.37522 166.69522 174.01523 181.48189 188.22856 191.46857 194.45523 198.6819 205.81523 213.28189">Ao longo de 3 meses o alunos ir&#x00e3;o </tspan></text>
<text fill="#ffffff" xml:space="preserve" transform="matrix(.75 0 0 .75 326.9037 50.519685)" font-size="13.333333" font-family="Roboto"><tspan y="40.199998" x="12.923622 20.323622 27.20362 33.950288 40.830289 48.150289 54.456956 61.923624 64.910289 71.230289 78.11028 82.59029 85.830287 93.29695 100.04362 103.283618 110.68362 117.563617 124.31028 131.44362 138.60363 146.07028 152.81696 156.05696 162.92363 170.39029 182.20363 185.44364 192.8303 199.96364 206.71031 213.59032">desenvolver os desa&#xfb01;os com base </tspan></text>
<text fill="#ffffff" xml:space="preserve" transform="matrix(.75 0 0 .75 326.9037 50.519685)" font-size="13.333333" font-family="Roboto"><tspan y="58.599996" x="27.374321 34.69432 41.827657 48.57432 51.814325 58.694326 65.440998 72.82766 79.70766 86.574329 89.56099 96.72099 103.58766 110.72099 117.58766 125.05433 131.93433 138.681 141.85434 145.09435 153.54769 160.42769 167.7477 175.0677 178.05437 185.52103 192.40103 199.1477">nas especi&#xfb01;ca&#x00e7;&#x00f5;es. Reuni&#x00f5;es </tspan></text>
<text fill="#ffffff" xml:space="preserve" transform="matrix(.75 0 0 .75 326.9037 50.519685)" font-size="13.333333" font-family="Roboto"><tspan y="77" x="28.46447 35.211137 42.091138 53.904474 61.037809 68.35781 75.49114 78.477809 85.22447 88.46447 95.33114 102.797809 114.61114 117.851139 126.05113 130.41114 137.87779 142.14446 149.02446 155.77114 162.5178 169.98447 174.34447 181.22447 187.97115 191.21115 198.09116">semanais com Professores e </tspan></text>
<text fill="#ffffff" xml:space="preserve" transform="matrix(.75 0 0 .75 326.9037 50.519685)" font-size="13.333333" font-family="Roboto"><tspan y="95.399997" x="71.52384 78.39051 85.85718 88.84384 95.97717 103.36384 110.830509 115.057178 122.190509 129.5905 137.05716 141.41716 148.29717">colaboradores</tspan></text>
<path transform="matrix(.001968504,0,0,.001968504,0,0)" d="M 139597.52 148984 L 191365.52 148984 L 191365.52 156832 L 139597.52 156832 Z " fill-opacity="0" fill-rule="evenodd"/>
<text fill="#ffffff" xml:space="preserve" transform="matrix(.75 0 0 .75 274.79826 293.27558)" font-size="16" font-family="Roboto"><tspan y="24.36" x="26.80029 37.69629 48.01629 56.96029 67.008289 77.08829 87.71229 98.14429">ABERTURA</tspan></text>
<path transform="matrix(.001968504,0,0,.001968504,0,0)" d="M 182880 17899 L 234648 17899 L 234648 25747 L 182880 25747 Z " fill-opacity="0" fill-rule="evenodd"/>
<text fill="#ffffff" xml:space="preserve" transform="matrix(.75 0 0 .75 360 35.234254)" font-size="16" font-family="Roboto"><tspan y="24.36" x="17.304196 28.040196 38.536195 47.480195 56.136194 65.08019 75.51219 86.24819 96.744197 107.480197">ACELERA&#x00c7;&#x00c3;O</tspan></text>
<path transform="matrix(.001968504,0,0,.001968504,0,0)" d="M 222531.52 149482.52 L 274299.54 149482.52 L 274299.54 157330.52 L 222531.52 157330.52 Z " fill-opacity="0" fill-rule="evenodd"/>
<text fill="#ffffff" xml:space="preserve" transform="matrix(.75 0 0 .75 438.05415 294.25694)" font-size="16" font-family="Roboto"><tspan y="24.36" x="30.776852 41.112855 50.056856 64.07285 75.112857 85.28885 95.01685">DEMODAY</tspan></text>
<path transform="matrix(.001968504,0,0,.001968504,0,0)" d="M 277602 99182 L 339246 99182 L 339246 107030 L 277602 107030 Z " fill-opacity="0" fill-rule="evenodd"/>
<text fill="#ffffff" xml:space="preserve" transform="matrix(.75 0 0 .75 546.46066 195.24018)" font-size="16" font-family="Roboto"><tspan y="24.36" x="23.296074 33.792078 44.832078 55.84008 65.92008 76.35208 86.32008 95.472087 106.208087 116.70409 127.44009">CONTRATA&#x00c7;&#x00c3;O</tspan></text>
<path transform="matrix(.001968504,0,0,.001968504,0,0)" d="M 86818.52 50047.52 L 161194.52 50047.52 L 161194.52 66403.519 L 86818.52 66403.519 Z " fill-opacity="0" fill-rule="evenodd"/>
<text fill="#ffffff" xml:space="preserve" transform="matrix(.75 0 0 .75 170.90262 98.51874)" font-size="13.333333" font-family="Roboto"><tspan y="21.8" x="25.534874 33.534875 39.84154 46.974878 49.961545 52.94821 60.081548 66.94821 74.08154 81.54821 84.78821 92.214878 99.534877 106.668209 109.65487 112.64153 116.92153 124.05486 128.33487 131.32154 137.62819 144.76152 148.00153 155.40152 162.86818 169.61486">Avalia&#x00e7;&#x00e3;o qualitativa dos </tspan></text>
<text fill="#ffffff" xml:space="preserve" transform="matrix(.75 0 0 .75 170.90262 98.51874)" font-size="13.333333" font-family="Roboto"><tspan y="40.199998" x="38.042924 45.176259 48.162927 55.482927 62.802927 70.26959 77.01626 80.256259 87.00292 93.88292 96.86958 103.74958 110.61625 113.60291 121.06958 128.38959 135.52292 142.92292 150.38957">alunos selecionados</tspan></text>
<path transform="matrix(.001968504,0,0,.001968504,0,0)" d="M 205691.08 156728 L 292019.07 156728 L 292019.07 173084 L 205691.08 173084 Z " fill-opacity="0" fill-rule="evenodd"/>
<text fill="#ffffff" xml:space="preserve" transform="matrix(.75 0 0 .75 404.9037 308.51969)" font-size="13.333333" font-family="Roboto"><tspan y="21.8" x="11.244583 19.564583 26.95125 31.311249 38.19125 44.937917 51.817918 59.137918 63.417917 70.55125 77.417919 84.55125 92.017917 95.25791 102.39124 109.77791 116.657909 121.45791 125.73791 132.87125 136.11125 143.49793 150.63126 154.85793 161.99126 165.23126 169.39127 176.85793 184.25792 191.39125 198.13793 201.37793 208.51126 215.25794">Apresenta&#x00e7;&#x00e3;o aberta para todas as </tspan></text>
<text fill="#ffffff" xml:space="preserve" transform="matrix(.75 0 0 .75 404.9037 308.51969)" font-size="13.333333" font-family="Roboto"><tspan y="40.199998" x="35.52215 42.40215 54.215486 61.60215 65.96215 72.84215 79.58881 86.722148 93.46881 96.70881 104.095478 111.228809 116.02881 120.30881 123.29547 130.16214 133.1488 140.53548 147.66881 154.98882 159.26882 166.14882 172.8955 176.1355 183.53549 191.00215">empresas participantes do </tspan></text>
<text fill="#ffffff" xml:space="preserve" transform="matrix(.75 0 0 .75 404.9037 308.51969)" font-size="13.333333" font-family="Roboto"><tspan y="58.599996" x="42.651697 50.03836 54.39836 61.86503 69.25169 73.47836 80.611698 92.425029 99.55836 102.798358 110.19836 117.078357 120.31835 127.45168 134.31835 141.19835 144.18502 151.06502 155.29169 162.42502 169.29169 176.42502">programa de acelera&#x00e7;&#x00e3;o</tspan></text>
<path transform="matrix(.001968504,0,0,.001968504,0,0)" d="M 266651.1 107960 L 352979.1 107960 L 352979.1 124316 L 266651.1 124316 Z " fill-opacity="0" fill-rule="evenodd"/>
<text fill="#ffffff" xml:space="preserve" transform="matrix(.75 0 0 .75 524.90377 212.51969)" font-size="13.333333" font-family="Roboto"><tspan y="21.8" x="38.65902 46.232355 58.045686 61.285688 68.15235 75.28568 82.03235 89.499019 92.73901 100.139019 107.01901 110.25901 113.245677 120.565677 124.84567 131.72568 136.08568 142.96569 149.71236 156.45903 163.33904 166.57904 173.97904 181.11237 187.85904">Em caso de interesse das </tspan></text>
<text fill="#ffffff" xml:space="preserve" transform="matrix(.75 0 0 .75 524.90377 212.51969)" font-size="13.333333" font-family="Roboto"><tspan y="40.199998" x="38.554956 45.434957 57.24829 64.63496 68.99496 75.874958 82.62162 89.75495 96.50162 99.741619 107.12828 114.26161 118.62161 125.48828 132.36829 135.35495 139.58162 146.71495 153.46163 156.00829 159.24829 166.38162 173.7683 181.23496 187.98163">empresas parceiras, ap&#x00f3;s </tspan></text>
<text fill="#ffffff" xml:space="preserve" transform="matrix(.75 0 0 .75 524.90377 212.51969)" font-size="13.333333" font-family="Roboto"><tspan y="58.599996" x="32.4116 35.4516 42.7716 45.758268 53.14493 60.278268 72.0916 78.971599 86.291599 90.45159 97.91826 101.15826 108.47826 115.94492 119.18492 127.90492 134.78493 146.59827 154.06493 161.46492 168.50492 174.14492 176.69158 179.93158 187.39824 194.14492">julgamento no Demoday, os </tspan></text>
<text fill="#ffffff" xml:space="preserve" transform="matrix(.75 0 0 .75 524.90377 212.51969)" font-size="13.333333" font-family="Roboto"><tspan y="77" x="28.666214 40.479547 47.359548 50.346216 57.65288 65.119548 69.479549 76.35954 83.10621 86.34621 93.47954 96.4662 103.7862 111.1062 118.57287 125.319538 128.55954 135.94622 143.41287 150.81287 157.69287 161.91954 169.05287 176.51953 179.75954 186.50621 193.38622 197.86621">melhores alunos poder&#x00e3;o ser </tspan></text>
<text fill="#ffffff" xml:space="preserve" transform="matrix(.75 0 0 .75 524.90377 212.51969)" font-size="13.333333" font-family="Roboto"><tspan y="95.399997" x="78.12281 84.98948 92.45615 99.776149 104.056148 108.282817 115.416149 119.696147 126.829479 134.22948 141.69614">contratados</tspan></text>
<path transform="matrix(.001968504,0,0,.001968504,0,0)" d="M 123395.08 156728 L 209723.08 156728 L 209723.08 173084 L 123395.08 173084 Z " fill-opacity="0" fill-rule="evenodd"/>
<text fill="#ffffff" xml:space="preserve" transform="matrix(.75 0 0 .75 242.90369 308.51969)" font-size="13.333333" font-family="Roboto"><tspan y="21.8" x="34.959306 43.97264 50.719308 53.95931 61.35931 68.23931 74.98598 82.11931 89.27931 96.74598 103.492649 106.73264 109.71931 117.03931 123.78597 131.17264 134.1593 138.38597 145.5193 152.9193 160.38596 167.13263 170.37264 177.69264 184.82598 191.57265">Os desa&#xfb01;os inspirados nas </tspan></text>
<text fill="#ffffff" xml:space="preserve" transform="matrix(.75 0 0 .75 242.90369 308.51969)" font-size="13.333333" font-family="Roboto"><tspan y="40.199998" x="32.304079 39.70408 46.58408 58.397417 65.53075 72.850749 80.25075 87.38408 94.130748 97.37074 104.770748 111.904079 118.65074 121.89074 128.77074 140.58408 147.97075 152.33075 159.21076 165.95743 173.09076 179.83744 183.07744 187.31745 194.19745">demandas das empresas (e </tspan></text>
<text fill="#ffffff" xml:space="preserve" transform="matrix(.75 0 0 .75 242.90369 308.51969)" font-size="13.333333" font-family="Roboto"><tspan y="58.599996" x="30.517678 34.797677 41.677679 48.544347 55.864347 63.331014 66.31768 73.78435 81.17101 84.15768 91.29101 98.037677 101.27767 108.411 115.811008 123.27767 127.55767 134.69101 142.091 149.22434 155.97101 160.30434 163.54434 170.29102 177.17102 181.39769 188.53102 195.99768">tecnologias adotadas) ser&#x00e3;o </tspan></text>
<text fill="#ffffff" xml:space="preserve" transform="matrix(.75 0 0 .75 242.90369 308.51969)" font-size="13.333333" font-family="Roboto"><tspan y="77" x="32.938539 40.33854 43.325208 50.071874 57.458539 64.9252 72.2452 75.231868 82.61853 85.605197 88.59186 91.57852 98.058528 105.19186 112.59186 120.058528 126.80519 130.0452 137.17853 144.64519 151.39186 154.63187 161.7652 164.75186 172.07187 179.39188 186.85854">disponibilizados aos alunos</tspan></text>
</g>
</g>
</g>
</svg>
